<?xml version="1.0" encoding="UTF-8"?>
<svg version="1.1" xmlns="http://www.w3.org/2000/svg" width="512" height="512">
<path d="M0 0 C5.61 0.33 11.22 0.66 17 1 C17.50789063 2.24394531 18.01578125 3.48789063 18.5390625 4.76953125 C29.22094617 30.70230743 43.41411056 54.67314067 70.3828125 66.0078125 C80.7120529 69.92367378 91.21788126 72.91899795 102 69 C111.39899416 64.56781376 116.05564854 57.47360116 120.5078125 48.35546875 C122.26842914 45.57627546 122.92647199 45.09465188 126 44 C128.94738453 43.78348123 131.79792183 43.67209631 134.74609375 43.6640625 C135.59422134 43.6574057 136.44234894 43.6507489 137.31617737 43.64389038 C139.10732865 43.63377978 140.89851748 43.62907287 142.68969727 43.62939453 C145.42462382 43.62502059 148.15793687 43.58868376 150.89257812 43.55078125 C152.63541116 43.54491282 154.37825185 43.5409436 156.12109375 43.5390625 C156.9358165 43.52469147 157.75053925 43.51032043 158.58995056 43.49551392 C162.55122723 43.5272717 164.52505919 43.70008491 167.95336914 45.86499023 C170.23344728 48.24352815 171.5565403 50.48086805 173 53.4375 C177.11275568 61.29766503 182.69994602 66.37928082 190.90625 69.79296875 C202.69731013 73.39310801 215.5658091 68.56297198 226.203125 63.46484375 C251.13744404 49.65958595 264.08328297 26.76433236 274 1 C278.27416207 0.3783037 282.34309506 -0.02729808 286.66430664 -0.01367188 C287.88169273 -0.01071106 287.88169273 -0.01071106 289.12367249 -0.00769043 C290.05245461 -0.00388367 290.05245461 -0.00388367 291 0 C291.0467602 16.568223 291.08200853 33.13642453 291.10362434 49.70469761 C291.11392855 57.39796215 291.12797252 65.09118564 291.15087891 72.78442383 C291.17083899 79.49133693 291.18372265 86.1982203 291.18817699 92.90516227 C291.19077994 96.4550828 291.19688014 100.00491827 291.21146011 103.55481148 C291.22761984 107.52166439 291.227978 111.48843477 291.22705078 115.45532227 C291.23424133 116.62704987 291.24143188 117.79877747 291.24884033 119.00601196 C291.2142124 132.69222458 291.2142124 132.69222458 287.39379883 136.67407227 C286.75466553 137.05104248 286.11553223 137.4280127 285.45703125 137.81640625 C284.72500488 138.26298584 283.99297852 138.70956543 283.23876953 139.16967773 C282.43810059 139.62930908 281.63743164 140.08894043 280.8125 140.5625 C279.55348877 141.3205896 279.55348877 141.3205896 278.26904297 142.09399414 C276.46103018 143.18095618 274.64765998 144.25904656 272.82958984 145.32910156 C269.03184296 147.5717055 265.27183818 149.87406102 261.50927734 152.17504883 C258.59201441 153.957656 255.66952904 155.73144312 252.74609375 157.50390625 C247.37530205 160.76561171 242.02697225 164.06232695 236.6875 167.375 C228.90521446 172.20283783 221.11312677 177.01434579 213.3125 181.8125 C212.22090576 182.48394043 211.12931152 183.15538086 210.00463867 183.84716797 C207.77999176 185.21540332 205.55530079 186.58356704 203.33056641 187.95166016 C197.88632432 191.29993688 192.4432111 194.65004759 187 198 C184.83333892 199.33334242 182.66667225 200.66667574 180.5 202 C179.4275 202.66 178.355 203.32 177.25 204 C128.04296875 234.28125 128.04296875 234.28125 125.07177734 236.09375 C122.86608422 237.46253492 120.69197424 238.85284093 118.52587891 240.28125 C117.94574539 240.65664917 117.36561188 241.03204834 116.76789856 241.41882324 C115.1401632 242.47334431 113.52157358 243.54194346 111.90356445 244.61132812 C109 246 109 246 106.35229492 245.85180664 C104.09559043 245.03461495 102.30605517 244.16716878 100.3125 242.83984375 C99.62438232 242.38407959 98.93626465 241.92831543 98.22729492 241.45874023 C97.4922876 240.95673096 96.75728027 240.45472168 96 239.9375 C95.22180908 239.41164307 94.44361816 238.88578613 93.6418457 238.34399414 C80.16680349 229.12184121 67.2041412 219.12606003 54.8515625 208.44921875 C52.03142476 206.02699086 49.15235393 203.69768269 46.25 201.375 C41.92237998 197.85763105 37.99142614 194.10453207 34.109375 190.10546875 C32.17058353 188.17026764 30.17280158 186.43060911 28.0625 184.6875 C12.40479347 171.04914054 3.00848615 152.42817946 0 132 C-0.08392066 130.09050366 -0.12207484 128.17858113 -0.12025452 126.26724243 C-0.12162918 125.14832611 -0.12300385 124.02940979 -0.12442017 122.87658691 C-0.12082489 121.66386108 -0.11722961 120.45113525 -0.11352539 119.20166016 C-0.11367142 117.91331268 -0.11381744 116.62496521 -0.1139679 115.2975769 C-0.11425404 111.77736925 -0.10838692 108.25719588 -0.10139394 104.73699617 C-0.09512991 101.05345618 -0.09455419 97.36991535 -0.09336853 93.68637085 C-0.0902642 86.71670075 -0.08206293 79.74704639 -0.07201904 72.77738321 C-0.06083 64.84027513 -0.05534042 56.9031663 -0.05032361 48.96605229 C-0.03987955 32.6440254 -0.02209537 16.32201533 0 0 Z " fill="#000000" transform="translate(68,143)"/>
<path d="M0 0 C4.96685772 2.92032838 10.03938906 3.33137315 15.5859375 1.9921875 C19.08330323 0.78784171 21.87338894 -0.66799119 24.78125 -2.94921875 C35.44760179 -10.77121006 48.84890546 -10.76542527 61.53125 -9.51171875 C65.31185318 -8.70482742 68.24617552 -7.52273393 71.53125 -5.51171875 C72.67207031 -4.85816406 72.67207031 -4.85816406 73.8359375 -4.19140625 C88.21190136 4.66651088 96.94479283 19.64208855 106.21875 33.30078125 C119.12764 52.28135266 132.87103222 69.51006217 156.57421875 74.07421875 C172.96863248 76.36986981 186.42258516 71.12642049 200.53125 63.48828125 C201.8611886 62.8148679 203.19252455 62.14405285 204.53125 61.48828125 C203.79460905 70.81906666 198.33261236 79.30522456 191.53125 85.48828125 C175.43482299 97.87014818 155.04623265 101.58704608 135.16796875 101.69140625 C134.29590286 101.69710632 133.42383698 101.7028064 132.52534485 101.7086792 C130.68577258 101.71806911 128.84618395 101.72463906 127.0065918 101.72851562 C124.26383978 101.7381233 121.52187063 101.76916372 118.77929688 101.80078125 C88.27865378 101.98292174 54.73174231 95.68996192 31.53125 74.48828125 C28.9435142 71.90736875 26.38008435 69.30103966 23.90405273 66.61254883 C19.9116729 62.41776174 15.9717273 59.79104325 10.08984375 59.2734375 C1.79767442 60.35768064 -2.36224633 64.20623019 -7.640625 70.4140625 C-26.27605814 91.55811164 -57.91111972 99.88917325 -85.152771 101.66305542 C-90.55567143 101.88979673 -95.95343611 101.91714421 -101.36035156 101.87939453 C-104.10011205 101.86324375 -106.83840719 101.87939812 -109.578125 101.8984375 C-131.8670183 101.92538086 -157.42620864 99.08140095 -174.40625 83.05078125 C-180.3250764 76.57031439 -183.33296145 69.96197892 -185.46875 61.48828125 C-181.81955833 62.84269277 -178.43557581 64.53187089 -175.00097656 66.35742188 C-160.3351611 74.06737003 -146.0407022 76.79457734 -129.7578125 72.578125 C-106.74570165 64.95297188 -93.71594838 44.67742272 -80.94604492 25.47924805 C-60.4711112 -5.14019817 -34.2544403 -21.04845213 0 0 Z " fill="#000000" transform="translate(203.46875,26.51171875)"/>
<path d="M0 0 C6.76562449 4.99312356 11.24027869 10.50473566 15 18 C15.32871094 18.63421875 15.65742188 19.2684375 15.99609375 19.921875 C20.61333654 30.26096412 19.70966759 42.56739692 16 53 C14.27951112 56.56422194 12.28862821 59.77591707 10 63 C9.278125 64.051875 8.55625 65.10375 7.8125 66.1875 C-2.23925311 76.23925311 -14.05652888 79.96590838 -28 80 C-35.22478948 79.50691348 -40.80628172 76.80844629 -47.04296875 73.2421875 C-50.81968472 71.65566745 -52.8973753 71.53341496 -57 72 C-60.43694313 73.63296374 -63.50578067 75.73985925 -66.640625 77.88671875 C-67.56228455 78.4995723 -68.48394409 79.11242584 -69.43353271 79.74385071 C-72.38264127 81.710177 -75.31621287 83.69840584 -78.25 85.6875 C-80.17611441 86.97605888 -82.10318998 88.26318227 -84.03125 89.54882812 C-88.7792678 92.72081177 -93.50807273 95.92018401 -98.23168945 99.12835693 C-100.97295399 100.98171431 -103.72602613 102.81621462 -106.48242188 104.64697266 C-108.19154017 105.79179228 -109.90053081 106.93680252 -111.609375 108.08203125 C-112.38589417 108.59263596 -113.16241333 109.10324066 -113.96246338 109.62931824 C-124.06060348 116.44177534 -128.65406231 125.84666714 -132.94921875 136.98046875 C-133.45908325 138.29797119 -133.45908325 138.29797119 -133.97924805 139.64208984 C-134.64474594 141.38311254 -135.29665546 143.12940885 -135.93286133 144.88134766 C-136.24376709 145.70038574 -136.55467285 146.51942383 -136.875 147.36328125 C-137.14054688 148.08813721 -137.40609375 148.81299316 -137.6796875 149.55981445 C-141.51413591 156.64659549 -146.1298846 160.13006153 -153.55859375 162.953125 C-154.81817146 163.4597039 -154.81817146 163.4597039 -156.10319519 163.97651672 C-158.87433712 165.08615115 -161.65554536 166.16779356 -164.4375 167.25 C-166.40687067 168.03310754 -168.37544417 168.81822247 -170.34326172 169.60522461 C-174.47078357 171.2532312 -178.60218644 172.89090759 -182.73681641 174.52099609 C-188.80006913 176.91511199 -194.84603227 179.35035995 -200.88671875 181.80078125 C-201.85648148 182.19413666 -202.8262442 182.58749207 -203.82539368 182.99276733 C-205.78031967 183.78591716 -207.73519952 184.5791807 -209.69003296 185.37255859 C-214.60357929 187.36468734 -219.52061436 189.3481621 -224.4375 191.33203125 C-234.62853096 195.44513111 -244.81679735 199.56502885 -255.00350952 203.68881226 C-257.59967655 204.73974899 -260.19594916 205.79042457 -262.79223633 206.84106445 C-271.3259353 210.294879 -279.85769937 213.75339487 -288.38671875 217.21875 C-290.89579567 218.23771355 -293.40489799 219.25661454 -295.91400146 220.2755127 C-298.22314673 221.21369661 -300.53175379 222.15319532 -302.84033203 223.09277344 C-309.29045016 225.71500754 -315.74789092 228.31832809 -322.23046875 230.859375 C-323.22844482 231.25092773 -324.2264209 231.64248047 -325.25463867 232.04589844 C-329.53299876 233.53276649 -333.42293447 234.12665834 -337.94140625 234.1328125 C-339.31135742 234.13474609 -339.31135742 234.13474609 -340.70898438 234.13671875 C-341.65064453 234.13285156 -342.59230469 234.12898437 -343.5625 234.125 C-344.50802734 234.12886719 -345.45355469 234.13273438 -346.42773438 234.13671875 C-347.33974609 234.13542969 -348.25175781 234.13414062 -349.19140625 234.1328125 C-350.01842041 234.13168457 -350.84543457 234.13055664 -351.69750977 234.12939453 C-353.92595142 234.00416136 -355.86105211 233.61885376 -358 233 C-358 232.34 -358 231.68 -358 231 C-356.28198242 229.77001953 -356.28198242 229.77001953 -353.85546875 228.3828125 C-352.51367554 227.60562866 -352.51367554 227.60562866 -351.14477539 226.81274414 C-350.16887451 226.25578857 -349.19297363 225.69883301 -348.1875 225.125 C-340.89521226 220.89400585 -333.66602769 216.60382333 -326.5625 212.0625 C-319.63405772 207.64309911 -312.65197267 203.32356155 -305.625 199.0625 C-298.29229801 194.61532388 -290.97484625 190.1461576 -283.6875 185.625 C-275.90521446 180.79716217 -268.11312677 175.98565421 -260.3125 171.1875 C-258.67510864 170.18033936 -258.67510864 170.18033936 -257.00463867 169.15283203 C-254.77999176 167.78459668 -252.55530079 166.41643296 -250.33056641 165.04833984 C-244.88632432 161.70006312 -239.4432111 158.34995241 -234 155 C-231.83333892 153.66665758 -229.66667225 152.33332426 -227.5 151 C-226.4275 150.34 -225.355 149.68 -224.25 149 C-136.5 95 -136.5 95 -133.24902344 92.99951172 C-131.0854778 91.66802399 -128.92206602 90.33631874 -126.75878906 89.00439453 C-121.29545544 85.64101434 -115.8297445 82.28161385 -110.359375 78.9296875 C-99.68357147 72.38424892 -89.02750976 65.80857336 -78.4375 59.125 C-77.49680664 58.5357373 -76.55611328 57.94647461 -75.58691406 57.33935547 C-74.73194336 56.79682129 -73.87697266 56.25428711 -72.99609375 55.6953125 C-72.24513428 55.22109863 -71.4941748 54.74688477 -70.72045898 54.25830078 C-68.8580627 53.09774055 -68.8580627 53.09774055 -68 51 C-67.96291955 49.5563947 -67.98665649 48.11095183 -68.04296875 46.66796875 C-68.48896596 30.62979077 -67.13209782 17.91484906 -55.8125 5.625 C-40.79621077 -9.00625617 -17.77648105 -11.5335502 0 0 Z M-43.30859375 19.03125 C-48.56357555 25.14790318 -50.52281687 32.0270427 -50 40 C-48.64359652 46.49464377 -46.11639994 51.68806546 -41 56 C-34.5801725 60.15084324 -28.28980641 62.81381637 -20.5625 61.625 C-12.74500797 59.71829463 -7.18565271 55.34125328 -2.5625 48.8125 C0.91394001 42.55490799 1.27408915 34.55141487 -0.6484375 27.68359375 C-3.56680358 21.31058064 -8.28911631 16.50604649 -14.375 13.125 C-25.38567745 9.7078932 -34.7229782 10.84456204 -43.30859375 19.03125 Z M-169 136 C-169.55153827 139.37817188 -169.3613395 141.2135552 -167.9375 144.3125 C-165.02424548 146.84985071 -162.8137751 147 -159 147 C-155.53364128 145.11610939 -154.31147333 143.79598741 -152.875 140.125 C-152.75454198 136.78608029 -152.75454198 136.78608029 -155.0625 133.625 C-157.74250242 130.80486242 -157.74250242 130.80486242 -161 130.3125 C-165.04375441 131.23919372 -166.54853142 132.68330721 -169 136 Z " fill="#000000" transform="translate(477,211)"/>
<path d="M0 0 C3.55717803 0.5584387 4.78776889 1.60350435 6.9375 4.4375 C26.15225029 27.13113139 59.84745272 37.70424831 88.53613281 40.32275391 C93.48175438 40.70561168 98.42584897 41.05472184 103.37939453 41.31762695 C105.04010986 41.4117688 105.04010986 41.4117688 106.734375 41.5078125 C107.72663086 41.55566895 108.71888672 41.60352539 109.74121094 41.65283203 C110.48661133 41.76739746 111.23201172 41.88196289 112 42 C113 44 113 44 112.43017578 45.78076172 C107.56479143 56.39680363 102.72106403 66.13653363 95 75 C93.86304688 76.32064453 93.86304688 76.32064453 92.703125 77.66796875 C83.15385962 87.98179949 70.04682535 95.8013828 55.8125 96.5 C51.54411826 96.3539337 48.43100529 96.0302554 45.28125 92.81640625 C43.662862 90.52204522 42.41466947 88.11858964 41.125 85.625 C37.16776026 77.97845863 32.40775004 73.61677881 24.28536987 70.64398193 C20.38216229 69.54411832 16.56285419 69.57208084 12.53125 69.6015625 C11.65150513 69.59869232 10.77176025 69.59582214 9.86535645 69.59286499 C8.01651358 69.59083532 6.16764871 69.59628786 4.31884766 69.60888672 C1.50764417 69.6249563 -1.30212186 69.6090007 -4.11328125 69.58984375 C-5.91927397 69.59182638 -7.7252658 69.59567045 -9.53125 69.6015625 C-10.36168823 69.59548981 -11.19212646 69.58941711 -12.04772949 69.5831604 C-19.45974769 69.67138976 -26.13716809 71.59255116 -32.21484375 76.078125 C-35.1522272 79.24047217 -37.07803536 83.07558129 -38.984375 86.9230957 C-41.27372116 91.37319343 -43.56901758 93.68572893 -48 96 C-57.49264123 98.15067653 -67.77139862 94.06307711 -75.8671875 89.3203125 C-78.33074437 87.63550917 -80.67126513 85.86551455 -83 84 C-83.59941406 83.56300781 -84.19882813 83.12601562 -84.81640625 82.67578125 C-97.06636471 73.21119617 -105.50637154 57.53688805 -110 43 C-108.32045845 41.32045845 -106.18343395 41.75219931 -103.875 41.640625 C-70.99337613 39.80005368 -36.3890149 33.70707671 -11 11 C-10.1646875 10.28328125 -9.329375 9.5665625 -8.46875 8.828125 C-3.80689015 4.80260579 -3.80689015 4.80260579 0 0 Z " fill="#000000" transform="translate(212,102)"/>
<path d="M0 0 C3.13260744 1.04420248 4.19759977 2.21537923 6.42178345 4.52609253 C9.69782821 7.58561363 13.53891619 9.93397372 17.26171875 12.41015625 C18.61871635 13.32238197 18.61871635 13.32238197 20.00312805 14.2530365 C22.89440782 16.19481944 25.79084861 18.12874182 28.6875 20.0625 C30.58432697 21.33477583 32.48081449 22.6075579 34.37695312 23.88085938 C38.10831447 26.38605167 41.84601307 28.88139743 45.58740234 31.37158203 C49.15049611 33.74785417 52.68409115 36.16016303 56.19775391 38.60888672 C57.01307083 39.17071152 57.82838776 39.73253632 58.66841125 40.31138611 C60.18940061 41.36082661 61.70315671 42.42086261 63.20793152 43.49342346 C67.25907141 46.26920506 69.91234399 47.74791229 75 47 C77.94853222 45.79438717 77.94853222 45.79438717 80.8125 44.125 C92.08928941 38.23662721 103.21382812 37.33399036 115.44140625 41.09765625 C127.12681442 45.21876967 134.47762374 52.20763519 140.58984375 62.97265625 C145.47143543 73.45252758 145.74685824 86.5123682 142.4375 97.5625 C138.18359723 108.36890563 129.56319946 117.14120989 119.15234375 122.17578125 C108.19401631 126.37216435 94.45557516 127.16712822 83.5234375 122.390625 C72.11111371 116.10148062 63.33189728 107.66573561 59.37841797 95.01025391 C57.69378176 88.10276276 58.0171014 81.59818411 58.60546875 74.55273438 C58.84827923 69.53532957 58.84827923 69.53532957 56.56811523 65.25170898 C54.46330538 63.62561715 52.3126143 62.31362627 50 61 C49.18273437 60.48590576 48.36546875 59.97181152 47.5234375 59.44213867 C44.80855156 57.73487346 42.06511326 56.08317802 39.3125 54.4375 C37.25480891 53.19597427 35.19752563 51.95377241 33.140625 50.7109375 C32.11001953 50.08928711 31.07941406 49.46763672 30.01757812 48.82714844 C23.80135884 45.0632176 17.62985209 41.22750909 11.4609375 37.38671875 C7.43994334 34.88422016 3.3994028 32.41585294 -0.6484375 29.95703125 C-2.86987199 28.59648531 -5.0912276 27.23581056 -7.3125 25.875 C-8.375896 25.23506104 -9.43929199 24.59512207 -10.53491211 23.93579102 C-11.50952393 23.33565186 -12.48413574 22.7355127 -13.48828125 22.1171875 C-14.36009033 21.58722168 -15.23189941 21.05725586 -16.13012695 20.51123047 C-16.74718506 20.01252441 -17.36424316 19.51381836 -18 19 C-18 18.01 -18 17.02 -18 16 C-17.43152344 15.72027344 -16.86304688 15.44054687 -16.27734375 15.15234375 C-9.2984718 11.52892276 -3.32096758 7.331798 0 0 Z M81 67 C77.11754242 73.01444296 75.42118346 78.82267486 76 86 C78.40573014 94.25008543 81.95346406 100.50436975 89.5625 104.875 C96.135599 107.89745177 102.48359364 108.08109255 109.48046875 106.40625 C116.7713499 103.69569866 121.8916201 97.95321231 125.5 91.1875 C126.8117253 82.82525123 126.8919896 75.70023808 122.61328125 68.19140625 C118.29663974 62.3278811 112.02627893 58.7067884 105 57 C95.28354875 55.9400235 87.34305011 59.76720077 81 67 Z " fill="#000000" transform="translate(351,370)"/>
<path d="M0 0 C2.4375 1.5625 2.4375 1.5625 4 4 C4.70476018 8.93332128 4.77041398 10.84437903 2 15 C-1.30929582 17.20619721 -3.1482197 17.81751114 -7.05859375 17.54296875 C-9.84515284 16.76362929 -11.57077798 15.19702011 -13.22265625 12.85546875 C-14.72195657 9.27673683 -13.97344429 6.71125636 -13 3 C-9.629664 -1.74910982 -5.25074073 -1.19753736 0 0 Z " fill="#000000" transform="translate(457,444)"/>
<path d="M0 0 C1.79895279 3.17462257 1.64634682 6.38549692 1.0625 9.875 C-0.375 12.875 -0.375 12.875 -2.9375 14.875 C-7.2403409 15.76714866 -10.68211475 15.65961578 -14.4375 13.3125 C-16.43883412 10.06033206 -16.87061096 7.68767501 -16.9375 3.875 C-15.65251203 0.66253006 -14.59543603 -0.70465198 -11.6875 -2.5625 C-7.30222136 -3.45948881 -3.81763456 -2.21669104 0 0 Z " fill="#000000" transform="translate(459.9375,241.125)"/>
</svg>
