<?xml version="1.0" encoding="UTF-8"?>
<svg version="1.1" xmlns="http://www.w3.org/2000/svg" width="512" height="512">
<path d="M0 0 C11.83294789 11.17445332 17.80375988 24.61628226 18.44140625 40.8125 C19.18390625 41.09222656 19.92640625 41.37195313 20.69140625 41.66015625 C41.16511464 50.23933803 56.05739122 69.98677034 64.44140625 89.8125 C70.34546774 104.66958607 73.15141616 122.09893064 70.56640625 138 C69.82284029 144.6827991 72.74377714 149.85174193 75.53515625 155.70703125 C88.90269304 183.84886637 91.99648112 218.22974817 82.15625 247.7578125 C75.32496813 266.9307324 62.35033074 283.53607361 44.25390625 293.1875 C37.66854105 296.21864569 31.64827976 297.06988834 24.44140625 296.8125 C24.31765625 297.4209375 24.19390625 298.029375 24.06640625 298.65625 C21.92234442 307.76851279 17.83786822 315.62358974 13.44140625 323.8125 C12.88324219 324.86824219 12.32507813 325.92398437 11.75 327.01171875 C5.67174369 337.98187292 -2.31198282 347.52354889 -10.74609375 356.75 C-11.20846436 357.25716553 -11.67083496 357.76433105 -12.1472168 358.28686523 C-12.60652588 358.77872314 -13.06583496 359.27058105 -13.5390625 359.77734375 C-14.00618652 360.28563721 -14.47331055 360.79393066 -14.95458984 361.31762695 C-16.55859375 362.8125 -16.55859375 362.8125 -18.66650391 364.06323242 C-21.84187098 366.1097922 -24.10895449 367.9069352 -25.01010132 371.72598267 C-25.74900491 377.54586634 -25.62594574 383.39518781 -25.55859375 389.25 C-25.56669156 391.04884807 -25.57837424 392.84768379 -25.59375 394.64648438 C-25.62349593 399.03610064 -25.60428747 403.42304708 -25.55859375 407.8125 C-29.51859375 407.8125 -33.47859375 407.8125 -37.55859375 407.8125 C-37.88859375 398.9025 -38.21859375 389.9925 -38.55859375 380.8125 C-41.07484375 382.359375 -43.59109375 383.90625 -46.18359375 385.5 C-66.22989242 397.45991061 -89.02072161 401.16748033 -111.8671875 395.91796875 C-123.2510872 392.50882207 -132.44749564 387.24683516 -142.55859375 380.8125 C-142.88859375 389.7225 -143.21859375 398.6325 -143.55859375 407.8125 C-147.51859375 407.8125 -151.47859375 407.8125 -155.55859375 407.8125 C-155.55859375 395.2725 -155.55859375 382.7325 -155.55859375 369.8125 C-156.87859375 369.1525 -158.19859375 368.4925 -159.55859375 367.8125 C-162.59104835 365.20766027 -165.36774748 362.33606053 -168.18359375 359.5 C-168.99175537 358.68619873 -169.79991699 357.87239746 -170.63256836 357.03393555 C-186.90438353 340.43187757 -199.87606218 320.21863528 -206.55859375 297.8125 C-207.64914063 297.68294922 -207.64914063 297.68294922 -208.76171875 297.55078125 C-226.21943006 295.111178 -239.32503749 286.85540503 -250.2421875 273.046875 C-266.81854472 249.90147233 -272.68340294 223.06238731 -268.37329102 195.08251953 C-265.69922469 179.33451784 -261.91600323 162.06456971 -253.99243164 148.04052734 C-252.39769809 144.45027244 -252.26090013 142.23144691 -252.40625 138.33203125 C-252.4525354 136.47602295 -252.4525354 136.47602295 -252.49975586 134.58251953 C-252.53979736 133.27653809 -252.57983887 131.97055664 -252.62109375 130.625 C-253.09731796 103.14607841 -245.63187234 79.70309264 -226.3046875 59.59375 C-216.71109994 49.87734269 -216.71109994 49.87734269 -210.9921875 46.88671875 C-203.49208741 43.03749678 -203.49208741 43.03749678 -199.20703125 36.10546875 C-198.6904597 33.35639241 -198.39742797 30.59669542 -198.1015625 27.81640625 C-196.7692763 15.6582109 -187.48632941 5.01379729 -178.62109375 -2.75 C-131.58816317 -39.41754643 -45.52838344 -38.92503012 0 0 Z M-172.55859375 8.8125 C-173.16832031 9.3075 -173.77804688 9.8025 -174.40625 10.3125 C-180.31532381 15.50729016 -183.59611416 22.64492021 -186.55859375 29.8125 C-186.55859375 30.8025 -186.55859375 31.7925 -186.55859375 32.8125 C-185.95781006 32.63074219 -185.35702637 32.44898438 -184.73803711 32.26171875 C-155.4621199 23.43736732 -127.73650676 17.72560667 -97.00683594 21.13745117 C-95.65187012 21.28597534 -95.65187012 21.28597534 -94.26953125 21.4375 C-93.08302979 21.58058594 -93.08302979 21.58058594 -91.87255859 21.7265625 C-89.27349105 21.82308833 -87.09421238 21.36790943 -84.55859375 20.8125 C-53.62078371 17.64299024 -23.45623792 22.72015207 5.44140625 33.8125 C3.38923614 26.05233517 3.38923614 26.05233517 -0.43359375 19.0625 C-1.14128906 18.04929687 -1.14128906 18.04929687 -1.86328125 17.015625 C-18.25391085 -4.2846402 -45.55691187 -11.73787484 -71.109375 -15.45703125 C-104.21374681 -19.61724696 -146.7045079 -14.40780163 -172.55859375 8.8125 Z M-209.55859375 60.8125 C-210.47253906 61.54984375 -211.38648438 62.2871875 -212.328125 63.046875 C-228.34686592 76.75802107 -237.42881577 95.04027715 -240.55859375 115.8125 C-240.81309632 119.51510186 -240.84622702 123.11321652 -240.55859375 126.8125 C-239.58921875 125.9875 -238.61984375 125.1625 -237.62109375 124.3125 C-236.65429688 123.49072266 -236.65429688 123.49072266 -235.66796875 122.65234375 C-234.25779121 121.42235556 -232.87197774 120.16388373 -231.51171875 118.87890625 C-222.24331037 110.20245826 -208.77638902 101.26510033 -195.6484375 100.68359375 C-194.95878906 100.72613281 -194.26914063 100.76867187 -193.55859375 100.8125 C-192.56859375 105.2675 -192.56859375 105.2675 -191.55859375 109.8125 C-192.91984375 110.328125 -194.28109375 110.84375 -195.68359375 111.375 C-219.29032654 120.92454113 -235.55772602 135.2843623 -245.68359375 158.875 C-257.28275942 186.87060248 -262.91477161 217.80067365 -250.98828125 246.62890625 C-244.20790654 261.72728163 -234.82647946 275.92976918 -219.109375 282.8984375 C-215.08215977 284.34956629 -211.84387767 284.85888231 -207.55859375 284.8125 C-207.51736389 284.25556458 -207.47613403 283.69862915 -207.43365479 283.12481689 C-206.99376725 277.21644703 -206.53621628 271.30961699 -206.06933594 265.40332031 C-205.89832858 263.21224852 -205.73151564 261.02084445 -205.56933594 258.82910156 C-201.20904572 200.09976053 -173.98000778 165.76353223 -133.01416016 125.36401367 C-124.39032588 116.85136995 -115.90591343 108.47610433 -108.55859375 98.8125 C-107.70314696 97.73175345 -106.84768211 96.6510212 -105.9921875 95.5703125 C-95.35816526 81.54422445 -80.30591545 61.50269025 -82.55859375 42.8125 C-84.31302723 38.65726281 -86.78318127 36.2455436 -90.55859375 33.8125 C-128.54455695 22.49135595 -179.30270845 36.39070918 -209.55859375 60.8125 Z M-74.55859375 31.8125 C-74.34203125 32.38355469 -74.12546875 32.95460937 -73.90234375 33.54296875 C-69.62976494 45.9848765 -70.87044808 57.8198285 -76.43505859 69.68066406 C-77.9548629 72.76098871 -79.53488599 75.7938308 -81.16796875 78.81640625 C-82.83926513 81.8666896 -82.83926513 81.8666896 -82.55859375 85.8125 C-81.219567 88.08469804 -79.86268055 90.13445196 -78.30859375 92.25 C-77.9321875 92.79076172 -77.55578125 93.33152344 -77.16796875 93.88867188 C-67.80825814 106.86064579 -55.56923129 117.91140335 -44.24609375 129.125 C-41.43448781 131.90974652 -38.62641625 134.69799163 -35.8203125 137.48828125 C-35.19412521 138.1061702 -34.56793793 138.72405914 -33.92277527 139.360672 C-30.12963663 143.13297672 -26.5427648 147.03062228 -23.05236816 151.08500671 C-21.21269729 153.2125161 -19.29152281 155.25790923 -17.37109375 157.3125 C-7.36355268 168.44525012 1.28909689 180.6679041 8.44140625 193.8125 C8.7647998 194.40321289 9.08819336 194.99392578 9.42138672 195.60253906 C20.35755508 216.01895987 22.41243147 239.15075843 24.00390625 261.875 C24.19170595 264.52854474 24.38108177 267.18194034 24.57469177 269.83506775 C24.69399287 271.47199099 24.80993524 273.10916358 24.92201233 274.74659729 C25.17308601 278.21054495 25.53263451 281.46268696 26.44140625 284.8125 C36.32773449 284.43225661 45.38573816 279.66959748 52.51171875 272.8984375 C69.27310341 254.77985571 76.73480072 231.97489709 75.86328125 207.52734375 C75.33534911 198.74676457 73.62861711 190.31514841 71.44140625 181.8125 C71.25416992 181.06774414 71.06693359 180.32298828 70.87402344 179.55566406 C64.56402933 154.95867496 52.98974082 132.21961785 30.44140625 118.8125 C23.99499652 115.4778852 17.52873846 112.46071679 10.44140625 110.8125 C10.77140625 107.1825 11.10140625 103.5525 11.44140625 99.8125 C25.32992909 102.59020457 37.76729821 108.43957455 48.44140625 117.8125 C49.40820312 118.61880859 49.40820312 118.61880859 50.39453125 119.44140625 C53.5646831 122.09873942 56.53391859 124.86717086 59.44140625 127.8125 C58.67357021 103.2417467 50.01993053 81.28243349 32.03125 64.0625 C12.97713565 47.5086993 -10.06853384 38.74417958 -34.55859375 33.8125 C-35.62078125 33.59722656 -36.68296875 33.38195312 -37.77734375 33.16015625 C-44.65031574 31.94675784 -51.53584029 31.490228 -58.49609375 31.125 C-59.39682617 31.07641846 -60.29755859 31.02783691 -61.22558594 30.9777832 C-65.82951851 30.77583367 -70.02207064 30.8185007 -74.55859375 31.8125 Z M-107.68359375 124.625 C-108.74924561 124.73001831 -108.74924561 124.73001831 -109.83642578 124.8371582 C-118.1540311 125.83435616 -122.27915646 130.25833009 -127.87109375 136 C-128.51626953 136.65419922 -129.16144531 137.30839844 -129.82617188 137.98242188 C-131.40829891 139.58798783 -132.98554505 141.1980469 -134.55859375 142.8125 C-131.99034946 144.09662215 -131.1775044 143.61759981 -128.453125 142.8515625 C-127.63392578 142.62726563 -126.81472656 142.40296875 -125.97070312 142.171875 C-125.11283203 141.92953125 -124.25496094 141.6871875 -123.37109375 141.4375 C-121.69118158 140.96748614 -120.0102011 140.50127233 -118.328125 140.0390625 C-117.58151611 139.82846191 -116.83490723 139.61786133 -116.06567383 139.40087891 C-107.89502778 137.48333513 -99.64732633 137.53131806 -91.30859375 137.5 C-90.2402832 137.49507538 -90.2402832 137.49507538 -89.15039062 137.49005127 C-77.51434039 137.47270455 -66.77788224 138.6628227 -55.55859375 141.8125 C-52.89503616 142.49214271 -50.22683645 143.15139522 -47.55859375 143.8125 C-49.52082902 141.43716257 -51.51444673 139.11673729 -53.55859375 136.8125 C-54.32042969 135.94753906 -55.08226562 135.08257812 -55.8671875 134.19140625 C-61.14984422 128.51316837 -64.76205409 125.34974055 -72.55859375 124.8125 C-73.78642578 124.65587891 -73.78642578 124.65587891 -75.0390625 124.49609375 C-85.91043532 123.22749928 -96.82138926 123.46362484 -107.68359375 124.625 Z M-167.55859375 221.8125 C-172.29742198 227.71280573 -174.86887822 233.97529445 -174.55859375 241.625 C-173.60150022 248.93674939 -169.71194315 255.06658183 -164.43359375 260.125 C-155.09168956 267.25327907 -145.02433926 269.14646292 -133.56689453 268.09912109 C-123.28926647 266.63231641 -115.46998566 260.75320557 -109.18359375 252.8125 C-105.81767726 246.59850033 -104.27734218 240.31872002 -106.24609375 233.39453125 C-109.98239302 223.10414034 -115.86397332 217.69883848 -125.55859375 212.8125 C-139.67404895 206.84057665 -156.98319858 211.15042126 -167.55859375 221.8125 Z M-68.55859375 220.8125 C-74.92082493 228.94279105 -76.57193714 235.47875404 -75.55859375 245.8125 C-73.36683889 253.23783774 -68.93137466 258.53363281 -62.55859375 262.8125 C-52.44292653 268.26963626 -41.67722863 269.30511859 -30.4140625 267.234375 C-21.91278882 264.55872377 -14.58993393 258.66741671 -9.99609375 251 C-7.29102236 245.00179822 -6.39893122 238.93419211 -8.20703125 232.5078125 C-12.19448508 222.65846074 -18.29250628 217.41539358 -27.7890625 212.94140625 C-41.1381943 207.50008172 -58.3466869 210.44138748 -68.55859375 220.8125 Z M10.44140625 246.8125 C10.23828458 248.53903419 10.03527941 250.26558214 9.83276367 251.9921875 C9.65255386 253.51975887 9.47036929 255.04709836 9.28637695 256.57421875 C8.82534507 260.42283271 8.3890379 264.26849059 8.0390625 268.12890625 C4.90288875 301.29046757 -12.93275491 328.97394302 -37.55859375 350.8125 C-55.02657052 365.1943049 -74.40367834 374.59169218 -97.55859375 372.8125 C-124.75046948 369.84611356 -147.69834201 350.20034971 -164.55859375 329.8125 C-180.76875511 308.6499855 -188.78753337 286.15430383 -190.68359375 259.625 C-190.76996094 258.48224609 -190.85632813 257.33949219 -190.9453125 256.16210938 C-191.15490042 253.37924754 -191.3592379 250.59611028 -191.55859375 247.8125 C-193.91694999 251.35003436 -194.21725695 254.34727179 -194.65625 258.4609375 C-194.73973694 259.2213887 -194.82322388 259.9818399 -194.90924072 260.76533508 C-196.7203406 278.14939751 -197.79443384 292.83441795 -189.55859375 308.8125 C-189.17413086 309.60092285 -188.78966797 310.3893457 -188.39355469 311.20166016 C-173.57242397 341.32576082 -145.58981935 370.80080277 -113.58642578 382.53564453 C-94.89444646 388.78491718 -76.12891143 386.7754058 -58.49609375 378.1875 C-45.66112011 371.60239805 -34.87877758 362.79569823 -24.55859375 352.8125 C-23.62144531 351.92691406 -22.68429687 351.04132813 -21.71875 350.12890625 C-7.43445768 336.32543162 2.92625308 320.17369839 10.44140625 301.8125 C11.04662109 300.50732422 11.04662109 300.50732422 11.6640625 299.17578125 C15.65701064 289.47088695 14.35882135 280.00503395 13.44140625 269.8125 C13.26453512 267.67847547 13.08878681 265.54435763 12.9140625 263.41015625 C12.4526057 257.87478371 11.95847361 252.34293813 11.44140625 246.8125 C11.11140625 246.8125 10.78140625 246.8125 10.44140625 246.8125 Z M-129.49609375 314.125 C-131.54675456 319.31196557 -132.0228916 323.1294203 -130.55859375 328.4375 C-127.64412762 333.3556616 -124.03926513 336.98560954 -118.55859375 338.8125 C-116.80675592 338.92015172 -115.05118996 338.97124404 -113.29614258 338.98950195 C-112.22104935 339.00233719 -111.14595612 339.01517242 -110.0382843 339.02839661 C-108.87580673 339.03578354 -107.71332916 339.04317047 -106.515625 339.05078125 C-105.31806076 339.058853 -104.12049652 339.06692474 -102.88664246 339.07524109 C-100.34884082 339.08908179 -97.81102056 339.099804 -95.27319336 339.10766602 C-91.40377189 339.12485484 -87.53521004 339.16874032 -83.66601562 339.21289062 C-81.19922503 339.22301976 -78.73242717 339.23153517 -76.265625 339.23828125 C-75.11326859 339.25578934 -73.96091217 339.27329742 -72.77363586 339.29133606 C-65.89259901 339.27288177 -61.3849645 338.56840181 -55.55859375 334.8125 C-51.42144258 329.61454084 -49.90528861 325.45443562 -50.55859375 318.8125 C-52.67790552 313.71854884 -55.37659828 310.38660306 -60.26856995 307.67414856 C-65.11349063 305.85118981 -70.31824962 306.22471007 -75.4296875 306.24609375 C-76.66598404 306.23989517 -77.90228058 306.23369659 -79.17604065 306.22731018 C-81.78410049 306.22022303 -84.39220568 306.22336656 -87.00024414 306.23608398 C-90.97952975 306.24994231 -94.95645984 306.21586473 -98.93554688 306.17773438 C-101.47526099 306.17678305 -104.01497803 306.17864273 -106.5546875 306.18359375 C-107.73824326 306.17033554 -108.92179901 306.15707733 -110.14122009 306.14341736 C-118.37202959 306.23568843 -124.0876335 307.66974099 -129.49609375 314.125 Z " fill="#000000" transform="translate(345.55859375,72.1875)"/>
<path d="M0 0 C1.485 1.36125 1.485 1.36125 3 2.75 C10.79938884 9.44197054 18.15851521 11.18785292 28.1875 11.25 C29.00025391 11.270625 29.81300781 11.29125 30.65039062 11.3125 C38.98869792 11.36556799 45.93408106 9.74636596 52.0625 3.8125 C52.81660156 3.09707031 53.57070313 2.38164062 54.34765625 1.64453125 C55.16556641 0.83048828 55.16556641 0.83048828 56 0 C59.93835641 2.25710846 62.87267952 4.69397549 66 8 C59.40904247 16.86292583 50.96990086 22.15126061 40 24 C23.64905598 25.43881898 9.69047838 24.13399203 -3.7578125 14.09765625 C-6.09167476 11.91423459 -7.50475629 9.80968998 -9 7 C-6.03 4.69 -3.06 2.38 0 0 Z " fill="#000000" transform="translate(226,383)"/>
<path d="M0 0 C3.46091915 1.51942792 5.76320741 3.58610672 8.5625 6.125 C4.76990945 13.94721802 -2.59683318 18.89137688 -10.4375 22.125 C-18.25099364 24.72949788 -27.68444759 24.35538234 -35.21118164 21.02416992 C-41.42944613 17.89848845 -46.76067766 14.13784856 -50.4375 8.125 C-50.4375 7.465 -50.4375 6.805 -50.4375 6.125 C-49.00320999 5.45145501 -47.56492943 4.78640299 -46.125 4.125 C-44.92423828 3.568125 -44.92423828 3.568125 -43.69921875 3 C-41.4375 2.125 -41.4375 2.125 -38.4375 2.125 C-37.695 2.888125 -36.9525 3.65125 -36.1875 4.4375 C-31.51437201 9.00442054 -27.37683377 10.29866134 -21 10.625 C-15.3384735 10.46191076 -11.71759844 8.75867625 -7.4375 5.125 C-6.550625 4.17625 -5.66375 3.2275 -4.75 2.25 C-2.4375 0.125 -2.4375 0.125 0 0 Z " fill="#000000" transform="translate(324.4375,300.875)"/>
<path d="M0 0 C4.38527268 0.38284127 6.83416294 3.19391715 10 6 C8.4176139 12.52734266 2.94792231 16.09364506 -2.41015625 19.55859375 C-10.81885144 24.03562151 -20.54769672 24.64524542 -29.7421875 22.30078125 C-36.70191066 19.44705393 -43.99659644 14.44025791 -48 8 C-47 5 -47 5 -44.99609375 3.83984375 C-38.18299657 1.43705681 -38.18299657 1.43705681 -34.734375 3.078125 C-32.7424266 4.64431343 -30.86995305 6.29117669 -29 8 C-24.35092554 10.69156942 -19.2312893 10.6389361 -14 10 C-9.3266826 8.5493759 -6.0649214 6.2427532 -2.75 2.6875 C-1.8425 1.800625 -0.935 0.91375 0 0 Z " fill="#000000" transform="translate(224,301)"/>
</svg>
