<?xml version="1.0" encoding="UTF-8"?>
<svg version="1.1" xmlns="http://www.w3.org/2000/svg" width="512" height="512">
<path d="M0 0 C9.651599 2.78146896 19.12615448 6.05582812 28.625 9.3125 C29.52724304 9.62123047 30.42948608 9.92996094 31.35906982 10.24804688 C48.33269931 16.05675883 65.26908856 21.96903358 82.1960907 27.91195679 C94.75515983 32.32007252 107.32129942 36.70798975 119.88724136 41.09646606 C121.93740887 41.81246817 123.98754983 42.52854628 126.03768921 43.24462891 C145.00383012 49.86881758 163.97796314 56.46961419 182.9602356 63.04745483 C198.08157879 68.28771354 213.1926338 73.55654596 228.2956543 78.84936523 C229.92887083 79.42172043 231.56209023 79.99406745 233.1953125 80.56640625 C234.40665611 80.99091316 234.40665611 80.99091316 235.64247131 81.42399597 C243.9720857 84.3421513 252.30606825 87.24774697 260.64025879 90.15280151 C278.97493828 96.54386822 297.30406861 102.95074128 315.63078308 109.36460495 C318.2391868 110.27744047 320.84764287 111.19012631 323.45610809 112.10278606 C325.33403366 112.75997915 327.21181751 113.41757716 329.08959961 114.07518005 C331.48369185 114.912809 333.87837159 115.74876094 336.27368164 116.582901 C341.31177698 118.34010649 346.33973194 120.11181121 351.33496094 121.98779297 C352.11970795 122.27867294 352.90445496 122.56955292 353.71298218 122.86924744 C355.10458774 123.38778874 356.49221933 123.91721862 357.87417603 124.46095276 C361.97010666 125.97791447 364.78330943 126.1216608 369 125 C370.90734197 124.10777 372.78284109 123.1450384 374.625 122.125 C395.97532377 111.06526707 423.4252455 113.12795365 445.84619141 119.94995117 C471.11510135 128.12837167 495.30767664 143.13827496 507.875 167.25 C512.75186347 177.1401427 513.52226477 188.21499492 511.41796875 198.9765625 C507.96285526 208.91593008 499.32571377 217.38535582 490 222 C461.54889754 233.23646401 432.36221658 231.71920823 404.4609375 219.6640625 C394.92610287 215.36668405 386.00218259 210.80385242 378 204 C376.69869141 202.90365234 376.69869141 202.90365234 375.37109375 201.78515625 C363.27073068 191.23565938 355.59107061 180.67808644 351.26733398 165.15673828 C350.93197632 164.02921143 350.93197632 164.02921143 350.58984375 162.87890625 C350.40284912 162.2041626 350.21585449 161.52941895 350.02319336 160.83422852 C347.23011114 155.82720711 339.73240033 154.19739326 334.6484375 152.2421875 C333.75258942 151.8936673 332.85674133 151.54514709 331.93374634 151.18606567 C329.0824714 150.0780943 326.22875719 148.9765599 323.375 147.875 C321.44776014 147.12670509 319.52067505 146.37801145 317.59375 145.62890625 C314.07169998 144.26182934 310.54943896 142.89532274 307.02490234 141.53466797 C306.31828461 141.26169891 305.61166687 140.98872986 304.88363647 140.70748901 C301.70265962 139.51272229 299.07470727 138.82020119 295.6875 138.75 C294.94886719 138.72421875 294.21023438 138.6984375 293.44921875 138.671875 C287.6205631 139.45274753 283.96050162 142.71797397 280.0625 146.875 C272.81186375 154.33217611 266.38014648 159.13961334 255.625 159.625 C247.37400067 159.43689432 241.58505577 156.46471855 234.6171875 152.48583984 C231.54533209 150.74187417 228.44615324 149.05229983 225.34375 147.36328125 C213.02978822 140.64692517 200.79827406 133.7843441 188.59887695 126.86230469 C181.29668385 122.72161699 173.96603105 118.63389094 166.625 114.5625 C152.69914076 106.8391139 138.80522839 99.05955018 124.91601562 91.27050781 C121.81924626 89.534084 118.72222338 87.79811386 115.625 86.0625 C114.60019531 85.48822266 113.57539062 84.91394531 112.51953125 84.32226562 C104.81515846 80.00839397 97.09677997 75.72011713 89.375 71.4375 C80.12979688 66.30939395 70.91116196 61.13733935 61.71582031 55.92041016 C55.37859944 52.33005053 49.01739413 48.78488427 42.64355469 45.26000977 C38.10763031 42.75112075 33.57999446 40.22740641 29.05371094 37.70117188 C27.12706066 36.62786686 25.19829945 35.55833432 23.26660156 34.49414062 C3.29245477 23.4690958 3.29245477 23.4690958 0 13 C-0.1953125 9.66796875 -0.1953125 9.66796875 -0.125 6.1875 C-0.10695312 5.02605469 -0.08890625 3.86460937 -0.0703125 2.66796875 C-0.04710937 1.78753906 -0.02390625 0.90710938 0 0 Z M236.125 112.5 C233.35160428 115.76281849 232.92518618 117.73561227 233 122 C234.76641172 124.80189446 236.03049822 126.51524911 239 128 C243.0130324 128.53507099 244.53928033 128.33051628 247.875 125.9375 C250.25807858 123.1098316 250.25807858 123.1098316 250.5625 119.4375 C250.24255667 116.01739386 250.24255667 116.01739386 248.4375 113.625 C244.19078224 110.79385483 240.71417922 110.10564562 236.125 112.5 Z M378.625 146.5 C374.00149062 152.36733392 373.150667 157.62477928 374 165 C377.63742505 179.24476636 389.25993922 189.48946691 401.1875 197.1875 C419.40490934 207.93384487 442.08257829 214.18063558 463.19140625 209.7890625 C472.98154813 207.03856367 482.0897259 203.37966024 487.4375 194.3125 C490.34059425 187.71455853 489.8759866 180.71657399 487.5625 174 C479.54462482 156.27627591 461.3060569 145.26381031 443.75 138.625 C423.70098967 131.43468513 394.35864126 129.23045567 378.625 146.5 Z " fill="#000000" transform="translate(0,135)"/>
<path d="M0 0 C4.39943469 1.4156611 8.24045074 3.08062195 12.28125 5.3359375 C12.85782349 5.65656158 13.43439697 5.97718567 14.02844238 6.30752563 C15.23987622 6.98254641 16.44994393 7.66002427 17.65869141 8.33984375 C19.49190623 9.3704498 21.32950392 10.39285696 23.16796875 11.4140625 C28.58023244 14.43586394 33.87506511 17.51139731 39 21 C37.46096762 24.65935666 35.2637863 26.97349262 32.45852661 29.75506592 C31.76190928 30.45001313 31.76190928 30.45001313 31.05121887 31.15899968 C29.49602791 32.70812542 27.93381761 34.24997342 26.37158203 35.79199219 C25.25418071 36.90227977 24.13724888 38.01304003 23.02075195 39.12423706 C20.61605319 41.51583741 18.20838239 43.90439109 15.79846573 46.29073334 C11.98512533 50.0674681 8.18050466 53.85290453 4.37741089 57.63995361 C-6.43838259 68.40746235 -17.2658081 79.16322883 -28.10205078 89.91015625 C-34.08717222 95.84610017 -40.06502116 101.7892731 -46.0352298 107.74021649 C-49.8109973 111.50293003 -53.59558429 115.25646504 -57.3870275 119.00337934 C-59.74922587 121.34203576 -62.10293904 123.6890913 -64.45439148 126.03854752 C-65.54250142 127.12238 -66.63403381 128.2027896 -67.72929764 129.27939224 C-75.5646346 136.98641135 -82.02638386 144.01244312 -82.3125 155.5625 C-82.01738813 173.12165641 -67.11705419 184.04984966 -55.43543243 195.51747131 C-52.9525889 197.95739128 -50.47980824 200.40741418 -48.00619125 202.85668182 C-43.42755979 207.3899012 -38.84460581 211.91858194 -34.24609375 216.43164062 C-31.01965373 219.59888337 -27.80539769 222.77804347 -24.59899139 225.96556091 C-23.38020192 227.17259882 -22.15688761 228.37508549 -20.92902374 229.57289124 C-19.22525303 231.23589136 -17.53742864 232.91360741 -15.85253906 234.59570312 C-15.34258392 235.08611084 -14.83262878 235.57651855 -14.30722046 236.08178711 C-12.93170166 237.47375488 -12.93170166 237.47375488 -11 240 C-11.11997266 242.84644682 -11.69508026 243.67624911 -13.64453125 245.74609375 C-27.35686144 256.44418199 -41.15278212 258.17021808 -58 257 C-72.21005617 254.48521394 -82.72019144 244.90093391 -92.546875 234.984375 C-93.61239639 233.92155801 -94.67851009 232.85933455 -95.74517822 231.79766846 C-97.96345545 229.58524171 -100.17445803 227.36586591 -102.38037109 225.14111328 C-105.18280249 222.31589541 -108.00281896 219.50902616 -110.82859421 216.70718002 C-113.02888755 214.52146603 -115.21941217 212.32615896 -117.40726471 210.12799835 C-118.44237605 209.0902531 -119.48037088 208.05537441 -120.52150726 207.02367401 C-133.33911347 194.29688431 -141.30609575 181.875659 -141.5 163.5 C-141.28536752 143.15999552 -131.13927814 130.51347613 -117.27172852 116.81762695 C-115.98906393 115.53609291 -114.70728394 114.25367298 -113.42631531 112.97044373 C-109.97292512 109.51591352 -106.50740924 106.07379112 -103.03946042 102.63388467 C-99.40743935 99.02699671 -95.78686508 95.40865433 -92.1650238 91.79154968 C-85.31673027 84.95565105 -78.45831152 78.1300066 -71.59612936 71.3080532 C-63.77922709 63.53597739 -55.97378206 55.75243795 -48.16924393 47.96794951 C-32.12548005 31.96591095 -16.06749395 15.9782088 0 0 Z " fill="#000000" transform="translate(141,255)"/>
<path d="M0 0 C0.9182959 0.00829834 1.8365918 0.01659668 2.78271484 0.02514648 C20.78914341 0.47204689 32.92804075 10.09730801 45.171875 22.453125 C46.23739639 23.51594199 47.30351009 24.57816545 48.37017822 25.63983154 C50.58845545 27.85225829 52.79945803 30.07163409 55.00537109 32.29638672 C57.80780249 35.12160459 60.62781896 37.92847384 63.45359421 40.73031998 C65.65388755 42.91603397 67.84441217 45.11134104 70.03226471 47.30950165 C71.06737605 48.3472469 72.10537088 49.38212559 73.14650726 50.41382599 C85.87460785 63.05174425 93.90720779 75.68565518 94.125 94 C93.97096956 108.08615335 88.84796798 119.79561387 79.625 130.4375 C75.0478068 129.5707444 72.6933453 126.87904174 69.54638672 123.63598633 C68.94739059 123.03100311 68.34839447 122.4260199 67.73124695 121.80270386 C66.43098228 120.48767539 65.13416206 119.16923428 63.84038925 117.84781837 C61.78644901 115.75091123 59.72282804 113.66399239 57.65628052 111.57951355 C51.78235393 105.65058558 45.92816589 99.70227483 40.07617188 93.75170898 C36.49448271 90.1110594 32.90284515 86.48045308 29.30548477 82.85529137 C27.28249757 80.81028017 25.27159323 78.75388064 23.26071167 76.69697571 C14.39035958 67.70676211 6.22739152 59.45507574 -7.0625 59.125 C-22.28115729 59.30991686 -31.35979223 71.27182754 -41.38085938 81.32983398 C-42.46555438 82.41481161 -43.55047072 83.499568 -44.6355896 84.5841217 C-47.55875275 87.5069998 -50.47883833 90.43293463 -53.39835167 93.35945773 C-56.45814021 96.42552871 -59.52079087 99.48873812 -62.58312988 102.55226135 C-68.37184357 108.344074 -74.15800501 114.13842937 -79.94323778 119.93371874 C-86.53381324 126.53550005 -93.12725337 133.13441716 -99.72092724 139.73310363 C-113.27545885 153.29806712 -126.82641623 166.86659598 -140.375 180.4375 C-144.39690309 179.09686564 -144.77013229 177.43541474 -146.7734375 173.75 C-147.09027496 173.1734668 -147.40711243 172.59693359 -147.73355103 172.00292969 C-148.74790414 170.15247328 -149.74910864 168.2952661 -150.75 166.4375 C-151.41579994 165.21697472 -152.08245787 163.99691705 -152.75 162.77734375 C-154.04215624 160.41646945 -155.3222638 158.05032545 -156.59667969 155.6796875 C-157.7031388 153.66241993 -158.84405042 151.66319455 -160.03613281 149.6953125 C-160.51147461 148.90898437 -160.98681641 148.12265625 -161.4765625 147.3125 C-161.89502441 146.64992187 -162.31348633 145.98734375 -162.74462891 145.3046875 C-163.375 143.4375 -163.375 143.4375 -162.73046684 141.6540041 C-160.95909707 138.75740181 -158.70933574 136.4858441 -156.31790161 134.10624695 C-155.7978813 133.58098996 -155.27786098 133.05573296 -154.74208248 132.51455909 C-152.99833454 130.75581031 -151.2475114 129.00428282 -149.49658203 127.25268555 C-148.24444331 125.99292499 -146.99270861 124.73276275 -145.74134827 123.472229 C-142.3387513 120.04767248 -138.92959059 116.62972451 -135.518538 113.21359229 C-133.38502084 111.07643086 -131.25280775 108.93797708 -129.1210289 106.7990818 C-121.67560685 99.32915248 -114.22446867 91.86497407 -106.76855469 84.40551758 C-99.83357611 77.46691099 -92.91181447 70.51530968 -85.99602425 63.55758256 C-80.04892283 57.57569468 -74.09214426 51.6035572 -68.12797248 45.63868934 C-64.57029892 42.0802253 -61.01665913 38.51795341 -57.47290421 34.9456234 C-54.13347265 31.57987095 -50.78207942 28.22649107 -47.42149162 24.88186646 C-46.19661058 23.65878923 -44.97591042 22.43150676 -43.75997734 21.19953346 C-31.23368375 8.51826937 -18.47754646 -0.21716161 0 0 Z " fill="#000000" transform="translate(418.375,-0.4375)"/>
<path d="M0 0 C1.98547363 0.79037476 1.98547363 0.79037476 3.0090332 2.37103271 C3.25455933 3.0525943 3.50008545 3.73415588 3.75305176 4.43637085 C4.04015015 5.20742157 4.32724854 5.97847229 4.62304688 6.77288818 C5.06541687 8.0306456 5.06541687 8.0306456 5.51672363 9.31381226 C5.99341492 10.59948593 5.99341492 10.59948593 6.47973633 11.91113281 C7.49679085 14.65726121 8.4930036 17.4102741 9.48547363 20.16537476 C10.47901456 22.91287351 11.47718398 25.65818493 12.49121094 28.39819336 C13.12237637 30.10429617 13.74173469 31.81482403 14.34790039 33.52996826 C16.37173021 39.16945719 16.37173021 39.16945719 20.98547363 42.79037476 C23.50552677 43.6107265 25.99488564 44.3465292 28.54797363 45.04037476 C48.93961046 51.04578329 64.02745416 67.54685892 73.98547363 85.79037476 C89.08900802 113.91838557 94.20555394 143.95214869 84.98547363 174.79037476 C81.28036915 186.63030273 74.627323 194.89433675 64.22375488 201.63412476 C55.47709252 206.15247041 44.82803732 206.20522261 35.37219238 203.91537476 C32.11023514 202.72778793 29.07478537 201.37161458 25.98547363 199.79037476 C25.08828613 199.34049194 24.19109863 198.89060913 23.26672363 198.42709351 C9.43027659 190.55252732 -1.43836306 177.59788608 -9.01452637 163.79037476 C-9.36595703 163.16018433 -9.7173877 162.5299939 -10.07946777 161.88070679 C-23.97792448 136.62964366 -29.82667641 106.19643573 -22.37780762 77.95053101 C-20.70456693 72.39423137 -18.05938883 67.35346166 -15.20983887 62.31771851 C-12.715096 54.95578122 -16.94006485 46.69475847 -19.45593262 39.64584351 C-19.78367172 38.7136348 -20.11141083 37.78142609 -20.44908142 36.82096863 C-21.48687563 33.87153205 -22.53156888 30.92460273 -23.57702637 27.97787476 C-24.62486405 25.01289111 -25.67121917 22.04739636 -26.71568298 19.08122253 C-27.36340921 17.24294243 -28.01327621 15.40541489 -28.6655426 13.56874084 C-28.95932297 12.73719986 -29.25310333 11.90565887 -29.55578613 11.04891968 C-29.8140065 10.32105759 -30.07222687 9.5931955 -30.33827209 8.84327698 C-30.99768155 6.84151049 -31.53099693 4.84102106 -32.01452637 2.79037476 C-31.16632324 2.89736694 -30.31812012 3.00435913 -29.44421387 3.11459351 C-19.30364382 4.15093748 -9.0897197 -0.94584749 0 0 Z M3.23547363 74.41537476 C-0.34821906 78.82356166 -2.35545692 83.38797775 -4.01452637 88.79037476 C-4.35290527 89.85771851 -4.35290527 89.85771851 -4.69812012 90.94662476 C-10.12379966 112.20032119 -4.09895654 134.00709125 5.98547363 152.79037476 C8.41906868 156.68230391 11.07199632 160.24862115 13.98547363 163.79037476 C14.4405127 164.41814819 14.89555176 165.04592163 15.36437988 165.69271851 C20.91169166 172.99529908 30.14252452 179.49120799 38.98547363 181.79037476 C46.08635796 182.67031143 52.14705042 182.11465744 57.98547363 177.79037476 C66.66929917 170.19454592 69.80045093 157.85448005 70.61999512 146.7046814 C71.90784757 123.26467772 64.20030072 101.02895603 49.04406738 83.03646851 C42.1570496 75.52217017 33.39812584 67.70186993 22.78625488 66.55209351 C14.38424956 66.30148424 9.06428746 68.30192671 3.23547363 74.41537476 Z " fill="#000000" transform="translate(275.0145263671875,307.2096252441406)"/>
<path d="M0 0 C14.53271668 -0.79752713 14.53271668 -0.79752713 21 4 C27.22394439 9.91070226 31.10807461 17.06651595 35.125 24.5625 C35.7807382 25.76756058 36.43766035 26.97197758 37.09570312 28.17578125 C38.09961151 30.0126712 39.1027903 31.84991582 40.10223389 33.6892395 C43.1683611 39.33110667 46.32444492 44.91924411 49.5 50.5 C54.83474151 59.90618603 60.09678089 69.35151082 65.34155273 78.80810547 C71.28632382 89.52472941 77.27223889 100.21800966 83.26611328 110.90722656 C86.1793914 116.10370745 89.08952827 121.30194696 92 126.5 C93.1666518 128.58334166 94.33331846 130.66667499 95.5 132.75 C102.5 145.25 102.5 145.25 104.25048828 148.37597656 C105.41540836 150.45612132 106.58044714 152.53619962 107.74560547 154.61621094 C110.68997926 159.87278657 113.63218362 165.13055594 116.5703125 170.390625 C117.75511655 172.51046797 118.94001161 174.63026007 120.125 176.75 C120.69750488 177.77488525 121.27000977 178.79977051 121.85986328 179.85571289 C124.72620283 184.97708542 127.61483993 190.08388473 130.546875 195.16796875 C131.10745605 196.14088867 131.66803711 197.11380859 132.24560547 198.11621094 C133.30837679 199.95639455 134.37493483 201.79439793 135.44580078 203.62988281 C135.9148584 204.44166992 136.38391602 205.25345703 136.8671875 206.08984375 C137.28081543 206.80003662 137.69444336 207.51022949 138.12060547 208.24194336 C139 210 139 210 139 212 C131.18041905 209.97834843 123.55997737 207.57468464 115.9375 204.91015625 C114.8249585 204.52435898 113.71241699 204.13856171 112.56616211 203.74107361 C109.0429194 202.51827297 105.52147636 201.29037685 102 200.0625 C99.63813022 199.24252339 97.27615193 198.42285927 94.9140625 197.60351562 C92.63011257 196.81017148 90.34625528 196.01656055 88.0625 195.22265625 C87.01634521 194.85898453 85.97019043 194.49531281 84.89233398 194.12062073 C82.89552383 193.42426501 80.90187582 192.71876002 78.91186523 192.00320435 C76.93848971 191.32333123 74.94351132 190.70371166 72.93383789 190.1401062 C65.81337278 188.01044757 65.81337278 188.01044757 63.61206055 185.27577209 C62.6019232 183.10284088 61.93472377 181.00123124 61.3125 178.6875 C60.76452982 176.96347589 60.21634351 175.23952046 59.66796875 173.515625 C59.39774902 172.61134766 59.1275293 171.70707031 58.84912109 170.77539062 C57.71445989 167.06669925 56.42335711 163.4214984 55.12759399 159.76657104 C54.10485442 156.88065419 53.10135668 153.98868416 52.10302734 151.09423828 C50.27845675 145.80679258 48.45040316 140.52056453 46.62069702 135.2348938 C45.85799195 133.03157107 45.09547971 130.82818157 44.3331604 128.62472534 C40.69773807 118.11877098 37.03981301 107.62073226 33.375 97.125 C33.07122437 96.2549231 32.76744873 95.38484619 32.45446777 94.48840332 C31.22945267 90.97974819 30.00442453 87.47109762 28.7791748 83.96252441 C26.55526168 77.59333414 24.33555497 71.22268615 22.1171875 64.8515625 C21.14718914 62.06658343 20.17708183 59.28164235 19.20687866 56.49673462 C18.57365075 54.67904434 17.94053142 52.86131623 17.30752563 51.04354858 C14.10377058 41.84591499 10.88705935 32.65344346 7.61328125 23.48046875 C7.35060455 22.74388031 7.08792786 22.00729187 6.81729126 21.24838257 C5.59877556 17.83345158 4.37643677 14.41996957 3.14746094 11.00878906 C2.72883789 9.83928711 2.31021484 8.66978516 1.87890625 7.46484375 C1.5135376 6.450271 1.14816895 5.43569824 0.77172852 4.39038086 C0 2 0 2 0 0 Z " fill="#000000" transform="translate(135,0)"/>
<path d="M0 0 C2.9906084 1.3462798 5.10334983 2.84396412 7.43547058 5.14112854 C8.42600685 6.1101989 8.42600685 6.1101989 9.43655396 7.09884644 C10.14995941 7.80687408 10.86336487 8.51490173 11.59838867 9.24438477 C12.35814499 9.99099869 13.11790131 10.73761261 13.90068054 11.5068512 C16.41236312 13.97911843 18.91595899 16.4593521 21.41796875 18.94140625 C22.27359217 19.78887861 23.12921558 20.63635098 24.01076698 21.50950432 C28.53718587 25.99422703 33.05703452 30.48545925 37.57202148 34.98168945 C42.23601409 39.62353594 46.92287011 44.24156481 51.6153059 48.85463047 C55.2205446 52.40758631 58.80790402 55.97819293 62.39068031 59.55378532 C64.11076098 61.26412415 65.83759387 62.96770022 67.57124901 64.66427803 C69.9966653 67.04100668 72.39558754 69.44174481 74.78979492 71.84985352 C75.50927307 72.54371155 76.22875122 73.23756958 76.97003174 73.95245361 C81.05548267 78.12493848 82.81752034 81.14978052 83.21173573 87.02480984 C82.86745432 90.23646076 81.31938625 91.87941829 79 94 C75.6960744 95.6519628 72.54426052 95.76249737 69 95 C67.0908289 93.68121624 67.0908289 93.68121624 65.20314026 91.93327332 C64.50845201 91.29499792 63.81376377 90.65672253 63.09802437 89.99910545 C62.40567633 89.33940065 61.71332829 88.67969585 61 88 C60.37631971 87.40647547 59.75263943 86.81295094 59.11005974 86.20144081 C57.18244692 84.33896333 55.27624542 82.45675751 53.37475586 80.56762695 C52.30257812 79.50771545 52.30257812 79.50771545 51.20874023 78.4263916 C48.87445933 76.11667432 46.54411694 73.80304807 44.21484375 71.48828125 C43.41555513 70.69431631 42.61626652 69.90035137 41.79275703 69.08232689 C37.57616595 64.8923194 33.36315585 60.69874513 29.15258789 56.50268555 C25.66664585 53.03016294 22.17354721 49.56508461 18.67407227 46.10620117 C14.43930889 41.92054016 10.21675024 37.7229381 6.00290108 33.51622581 C4.39588384 31.91594334 2.78459764 30.31993625 1.16905022 28.72826576 C-1.07887507 26.51172698 -3.31075906 24.28018586 -5.53930664 22.04418945 C-6.21293747 21.38696396 -6.8865683 20.72973846 -7.58061218 20.05259705 C-8.18190948 19.44298126 -8.78320679 18.83336548 -9.40272522 18.20527649 C-9.93158357 17.67972829 -10.46044191 17.15418009 -11.00532627 16.61270618 C-12 15 -12 15 -11.81882381 12.97447491 C-10.48300761 9.7533478 -7.92079301 7.61238361 -5.4375 5.25 C-4.91736328 4.74339844 -4.39722656 4.23679687 -3.86132812 3.71484375 C-2.58089916 2.46965595 -1.29132446 1.23388498 0 0 Z " fill="#000000" transform="translate(105,376)"/>
<path d="M0 0 C2.38462635 0.94074771 3.63811939 2.02150137 5.44596291 3.83406639 C6.09646111 4.47899544 6.7469593 5.12392448 7.41716957 5.78839684 C8.11965324 6.50009529 8.82213692 7.21179375 9.54590797 7.94505882 C10.29430443 8.6914109 11.04270088 9.43776299 11.81377602 10.2067318 C14.28958702 12.67953092 16.75447882 15.16291736 19.21924782 17.64671898 C20.93451574 19.36504397 22.65037455 21.0827793 24.36680031 22.79994774 C27.96413093 26.40188407 31.55649038 30.00867989 35.14502907 33.61937523 C39.74967042 38.25229899 44.3629445 42.87650199 48.97951126 47.49753952 C52.52297136 51.04515287 56.06359078 54.59558902 59.60317039 58.14707375 C61.30360476 59.85321344 63.00451373 61.55888025 64.70590019 63.26407051 C67.08098468 65.64601554 69.4526485 68.03131113 71.82325172 70.41771507 C72.52978386 71.12536507 73.23631599 71.83301506 73.96425819 72.56210899 C74.60911674 73.21267769 75.2539753 73.86324638 75.91837502 74.53352928 C76.47916063 75.09728956 77.03994625 75.66104984 77.61772537 76.24189377 C80.77551593 79.68840288 81.48616043 82.15290788 81.38331032 86.80687523 C80.87026376 89.94012382 79.28508566 91.64646644 77.05518532 93.81078148 C73.79470903 95.44101962 71.67717497 95.27813498 68.05518532 94.81078148 C66.19751167 93.49745655 66.19751167 93.49745655 64.29432106 91.75375938 C63.59508018 91.11542105 62.89583931 90.47708271 62.17540932 89.81940079 C58.85055756 86.66956311 55.58373952 83.47036995 52.35401344 80.22313499 C51.63108101 79.50034859 50.90814857 78.77756218 50.1633091 78.03287315 C47.80196972 75.67084357 45.44418066 73.30530435 43.08643532 70.93968773 C41.4389901 69.29037515 39.79132226 67.64128491 38.14344215 65.99240685 C33.82750024 61.67266476 29.51457115 57.34992695 25.20228004 53.02654076 C20.79309845 48.60709107 16.38104996 44.1905055 11.96924782 39.7736721 C3.32843183 31.12216292 -5.3092014 22.4674836 -13.94481468 13.81078148 C-12.18281577 10.0471478 -9.98279934 7.48473904 -7.06981468 4.49828148 C-6.20614281 3.59464867 -5.34247093 2.69101585 -4.45262718 1.76000023 C-1.94481468 -0.18921852 -1.94481468 -0.18921852 0 0 Z " fill="#000000" transform="translate(140.94481468200684,342.18921852111816)"/>
<path d="M0 0 C3.01288518 1.35133977 5.10634978 2.85688644 7.43547058 5.18823242 C8.42600685 6.17247696 8.42600685 6.17247696 9.43655396 7.17660522 C10.50666214 8.25514267 10.50666214 8.25514267 11.59838867 9.35546875 C12.35814499 10.11332672 13.11790131 10.87118469 13.90068054 11.65200806 C16.41135628 14.15897821 18.91475785 16.67307788 21.41796875 19.1875 C23.15827085 20.92899399 24.89894253 22.67011873 26.63996887 24.41088867 C30.28709271 28.05957694 33.9308304 31.71160227 37.57202148 35.36621094 C42.24796117 40.05915922 46.93047562 44.74547885 51.6153059 49.42955017 C55.20913121 53.02364689 58.80034821 56.62034005 62.39068031 60.21792603 C64.11692345 61.947359 65.8437797 63.67618022 67.57124901 65.40438843 C69.97996264 67.8152612 72.38535952 70.22939264 74.78979492 72.64453125 C75.50927307 73.36355621 76.22875122 74.08258118 76.97003174 74.82339478 C77.62192978 75.4795578 78.27382782 76.13572083 78.94548035 76.81176758 C79.79910298 77.66790398 79.79910298 77.66790398 80.66997051 78.54133606 C82.79935822 80.87666854 83.0076806 82.08141438 83.3125 85.3125 C82.95124058 89.57536111 81.98007946 91.01992054 79 94 C75.59607437 95.70196282 72.62704894 95.90285245 69 95 C66.95463562 93.54219055 66.95463562 93.54219055 64.75268555 91.4777832 C63.87405853 90.65549225 62.99543152 89.83320129 62.09017944 88.98599243 C61.05805693 87.99280072 60.02815732 86.99729593 59 86 C58.41889591 85.43722225 57.83779182 84.8744445 57.23907852 84.29461288 C52.27812267 79.4737627 47.36420066 74.60597374 42.45703125 69.73046875 C41.6816419 68.96040308 40.90625256 68.19033741 40.10736656 67.39693642 C36.02047137 63.33656903 31.93711887 59.27267335 27.85620117 55.20629883 C24.48092466 51.84446114 21.09848406 48.49008329 17.7097168 45.1418457 C13.60232692 41.08355287 9.50714137 37.01332741 5.42066002 32.93398476 C3.86388332 31.38393991 2.30283999 29.83816826 0.73752785 28.29674339 C-1.43833738 26.15226078 -3.59814855 23.99279767 -5.75463867 21.82885742 C-6.40642593 21.19347549 -7.0582132 20.55809357 -7.72975159 19.90345764 C-9.49211121 18.1158905 -9.49211121 18.1158905 -12 15 C-11.58823929 10.54659035 -8.51804978 8.18056046 -5.4375 5.25 C-4.91736328 4.74339844 -4.39722656 4.23679688 -3.86132812 3.71484375 C-2.58089916 2.46965595 -1.29132446 1.23388498 0 0 Z " fill="#000000" transform="translate(354,127)"/>
<path d="M0 0 C2.40327654 0.95008042 3.67048432 2.05389922 5.49344921 3.8815527 C6.15380672 4.53634106 6.81416424 5.19112942 7.49453259 5.86575985 C8.56464077 6.94969021 8.56464077 6.94969021 9.6563673 8.05551815 C10.41612362 8.81323009 11.17587994 9.57094204 11.95865917 10.35161495 C14.47174131 12.86168539 16.97390796 15.38234432 19.47594738 17.90341854 C21.21603132 19.64655928 22.95670591 21.38911059 24.6979475 23.13109493 C28.34655256 26.7843054 31.99018702 30.44237632 35.63000011 34.10434628 C40.3042316 38.80688113 44.9871164 43.50067592 49.67328453 48.19131279 C53.26731826 51.78949592 56.85851128 55.39050209 60.44865894 58.99256229 C62.17503659 60.72465132 63.90189287 62.45626342 65.62922764 64.18739796 C68.03805028 66.60306758 70.4434492 69.02209114 72.84777355 71.4422369 C73.5672517 72.16283291 74.28672985 72.88342892 75.02801037 73.62586117 C75.67990841 74.28346935 76.33180645 74.94107754 77.00345898 75.61861324 C77.57254073 76.19066966 78.14162249 76.76272608 78.72794914 77.35211754 C81.35930955 80.24349761 81.38585033 82.93518831 81.35094738 86.77451229 C80.89542896 89.94492046 79.30482206 91.63281499 77.05797863 93.81357479 C73.45117853 95.61697484 69.83989945 94.91482639 66.05797863 93.81357479 C62.85990111 91.72121135 60.33358412 89.10352178 57.69250011 86.3562994 C56.91090023 85.57586773 56.12930035 84.79543606 55.32401562 83.99135494 C52.75627071 81.41805556 50.21799511 78.81763278 47.67907238 76.21591854 C45.90006894 74.42198769 44.1192859 72.62982001 42.33680248 70.83934689 C38.13596999 66.6111353 33.95331641 62.36549211 29.77919966 58.11094815 C25.02355662 53.26569313 20.24500767 48.44330278 15.46445644 43.62264144 C5.63670873 33.71141244 -4.16211387 23.77199705 -13.94202137 13.81357479 C-12.18002246 10.04994111 -9.98000603 7.48753236 -7.06702137 4.50107479 C-6.20334949 3.59744198 -5.33967762 2.69380917 -4.44983387 1.76279354 C-1.94202137 -0.18642521 -1.94202137 -0.18642521 0 0 Z " fill="#000000" transform="translate(389.9420213699341,93.18642520904541)"/>
<path d="M0 0 C4.53907962 3.81350405 8.90679143 7.73944677 13.13476562 11.89428711 C13.98726898 12.72729591 13.98726898 12.72729591 14.85699463 13.57713318 C20.71576685 19.31048341 26.54101954 25.07800444 32.36328125 30.84838867 C35.12513783 33.58335255 37.89760863 36.30685244 40.6796875 39.02124023 C44.05111927 42.31088868 47.40265689 45.61961274 50.7408905 48.94293404 C52.0131401 50.20292863 53.29227288 51.45601253 54.57832336 52.70191765 C56.37153979 54.44184425 58.13807212 56.20517898 59.90039062 57.97631836 C60.70280182 58.73794281 60.70280182 58.73794281 61.52142334 59.51495361 C62.9654541 60.99668884 62.9654541 60.99668884 65 64 C64.84877014 67.74075317 64.84877014 67.74075317 64 71 C63.84136475 71.71663818 63.68272949 72.43327637 63.51928711 73.17163086 C63.3569458 73.76339111 63.19460449 74.35515137 63.02734375 74.96484375 C62.85009766 75.61904297 62.67285156 76.27324219 62.49023438 76.94726562 C62.30783203 77.60404297 62.12542969 78.26082031 61.9375 78.9375 C61.75123047 79.62134766 61.56496094 80.30519531 61.37304688 81.00976562 C60.91910943 82.67420293 60.46009084 84.33725312 60 86 C57.15625973 84.70701105 55.10105702 83.34960102 52.8994751 81.13998413 C52.31339981 80.55665817 51.72732452 79.97333221 51.12348938 79.37232971 C50.49266953 78.73431931 49.86184967 78.0963089 49.21191406 77.43896484 C48.53833359 76.76567642 47.86475311 76.092388 47.17076111 75.3986969 C44.94760846 73.17415197 42.73162207 70.94260871 40.515625 68.7109375 C38.97478135 67.16636338 37.43349528 65.62223049 35.89178467 64.07852173 C31.83660963 60.01571302 27.78747676 55.94693378 23.73956299 51.87689209 C19.60734389 47.72420894 15.46945243 43.57718656 11.33203125 39.4296875 C3.21578501 31.29199602 -4.89409083 23.14798731 -13 15 C-11.16307611 10.99625569 -8.50882084 8.28042066 -5.375 5.25 C-4.859375 4.74339844 -4.34375 4.23679687 -3.8125 3.71484375 C-2.54616661 2.47196098 -1.2736856 1.23534724 0 0 Z " fill="#000000" transform="translate(174,307)"/>
<path d="M0 0 C2.83721464 1.29134315 4.89788706 2.64720777 7.1005249 4.84655762 C7.68660019 5.42699326 8.27267548 6.00742889 8.87651062 6.60545349 C9.50733047 7.24032181 10.13815033 7.87519012 10.78808594 8.52929688 C11.46166641 9.19937271 12.13524689 9.86944855 12.82923889 10.55982971 C15.05267354 12.77446651 17.26871866 14.9963333 19.484375 17.21875 C21.02536232 18.75839043 22.56664646 20.29773384 24.10821533 21.83679199 C27.33598766 25.06161596 30.56011472 28.2900298 33.78173828 31.52099609 C37.92021704 35.67088825 42.06763399 39.81171297 46.21780014 43.94991302 C49.40058456 47.12548746 52.57861102 50.30578894 55.75519562 53.48756409 C57.28321582 55.01692218 58.81273332 56.54478573 60.34374237 58.07115173 C62.47719057 60.19954684 64.60416568 62.33420226 66.72949219 64.47070312 C67.36840897 65.10557144 68.00732574 65.74043976 68.66560364 66.39454651 C73 70.77147008 73 70.77147008 73 73 C70.10767725 73.86799717 67.21215302 74.7196556 64.3125 75.5625 C63.08756836 75.9327832 63.08756836 75.9327832 61.83789062 76.31054688 C60.64389648 76.65375977 60.64389648 76.65375977 59.42578125 77.00390625 C58.69786377 77.21861572 57.96994629 77.4333252 57.2199707 77.65454102 C54.35232135 78.100788 52.79227697 77.90114112 50 77 C47.7302001 75.09498999 45.70865684 73.21461736 43.64916992 71.10327148 C43.03396484 70.48865051 42.41875977 69.87402954 41.78491211 69.24078369 C39.75713705 67.21022559 37.74389159 65.16587552 35.73046875 63.12109375 C34.3260137 61.70917715 32.92067194 60.29814206 31.51448059 58.88795471 C27.81816625 55.17637754 24.13402184 51.4529448 20.45227051 47.72692871 C16.69224363 43.92596369 12.9208492 40.13631536 9.15039062 36.34570312 C1.7557472 28.90817729 -5.62609089 21.45807929 -13 14 C-12.0449028 12.87879843 -11.08882049 11.75843599 -10.13232422 10.63842773 C-9.6000119 10.01443588 -9.06769958 9.39044403 -8.51925659 8.74754333 C-6.79809702 6.76775864 -4.998427 4.89845846 -3.125 3.0625 C-2.23167969 2.18271484 -2.23167969 2.18271484 -1.3203125 1.28515625 C-0.66675781 0.64900391 -0.66675781 0.64900391 0 0 Z " fill="#000000" transform="translate(320,161)"/>
</svg>
