<?xml version="1.0" encoding="UTF-8"?>
<svg version="1.1" xmlns="http://www.w3.org/2000/svg" width="512" height="512">
<path d="M0 0 C6.83451622 6.14947147 11.69302891 14.82180686 12.8125 23.9375 C12.375 27.375 12.375 27.375 10.3125 30.3125 C6.63437488 32.89501338 4.78268137 33.09625695 0.375 32.375 C-3.090988 29.53979526 -4.64743564 26.55472792 -6.4375 22.5 C-9.81735843 15.56284057 -13.33786315 11.34874685 -20.703125 8.74609375 C-25.85614724 7.10613773 -30.6888496 6.92924235 -36.0625 7 C-36.93970703 6.98839844 -37.81691406 6.97679688 -38.72070312 6.96484375 C-44.3660702 6.98980484 -53.36091527 7.11091527 -57.625 11.375 C-56.17684415 12.47190103 -54.71570105 13.55165585 -53.25 14.625 C-52.43789062 15.22828125 -51.62578125 15.8315625 -50.7890625 16.453125 C-43.27780176 21.01552041 -34.82179932 23.31504942 -26.4375 25.75 C12.82026353 37.47981826 12.82026353 37.47981826 23.33203125 54.0546875 C27.09743666 62.43165683 26.471973 70.55590671 26.03320312 79.53125 C25.88039248 85.73771295 26.35031629 89.64849687 30.15966797 94.65625 C34.65016814 101.00681673 33.89266309 109.82594803 32.75 117.125 C31.61590225 122.4643653 29.27054612 127.01587073 26.71484375 131.80859375 C25.28367014 134.38445183 25.28367014 134.38445183 24.375 137.375 C27.29214837 138.83357419 29.64035335 138.2601781 32.875 138 C34.76025391 137.85691406 34.76025391 137.85691406 36.68359375 137.7109375 C39.78732963 137.42848111 42.85060681 137.04403527 45.9375 136.625 C49.17303045 136.2849771 50.2705051 136.33146046 53.375 137.625 C56.06513973 139.97887226 57.27130813 141.69359629 57.8125 145.25 C57.351861 148.54027856 56.61470226 149.95467046 54.21411133 152.22021484 C50.13907505 154.77894598 45.18033467 155.07977157 40.5 155.75 C38.90478516 156.01490234 38.90478516 156.01490234 37.27734375 156.28515625 C27.17318609 157.85412483 20.92068682 156.60199597 12.125 151.5625 C11.32320312 151.12357422 10.52140625 150.68464844 9.6953125 150.23242188 C5.73479341 148.00380202 2.84912029 146.29547865 0.375 142.375 C-0.25 139.125 -0.25 139.125 0.375 135.375 C2.42650548 132.42666152 4.85890376 129.92905459 7.375 127.375 C12.73058746 121.27558095 15.56921686 114.53210795 15.375 106.375 C13.6246603 100.42384503 9.54215281 97.40771489 4.375 94.375 C-14.25010655 84.99263748 -37.06272822 83.38876017 -57.4375 80.8125 C-108.10486254 74.37563678 -108.10486254 74.37563678 -121.625 63.375 C-123.625 60.375 -123.625 60.375 -123.5 56.9375 C-122.53734961 53.01813768 -121.9813415 51.58311941 -118.625 49.375 C-113.32084519 48.93458281 -109.93766301 49.82119945 -105.1875 52.125 C-87.51720436 60.05734338 -68.12655815 61.37934714 -49.1105957 63.79956055 C-9.51829697 68.87406286 -9.51829697 68.87406286 8.375 76.375 C8.87105728 67.90176467 8.87105728 67.90176467 5.375 60.375 C-6.4104445 48.62123681 -25.2204271 44.84653116 -40.625 40.375 C-53.99513302 36.4328783 -66.24871873 30.23928121 -74.6171875 18.60546875 C-76.3885186 16.19054366 -76.3885186 16.19054366 -78.859375 15.9296875 C-90.16086614 17.36869724 -101.74087659 20.13916526 -110.92578125 27.140625 C-112.625 28.375 -112.625 28.375 -115.625 29.375 C-116.68881023 31.21002542 -116.68881023 31.21002542 -117.625 33.375 C-118.56504463 34.80386784 -119.5246046 36.22002632 -120.5 37.625 C-122.41374332 40.427267 -123.96763552 43.05355824 -125.25 46.1875 C-127.18195158 50.28780231 -130.21627934 53.14628853 -133.4375 56.25 C-142.62037028 65.09990626 -151.87870516 76.48659334 -152.875 89.6875 C-152.51670258 94.97238693 -151.16203014 98.74755632 -147.5 102.625 C-137.82184037 108.51605369 -127.13287294 108.56811197 -116.125 108.5625 C-115.46939087 108.5632251 -114.81378174 108.5639502 -114.13830566 108.56469727 C-104.17977973 108.56349607 -94.30896294 108.12239702 -84.375 107.375 C-17.61708702 102.40019946 -17.61708702 102.40019946 1.046875 117.75 C2.98735982 120.12424025 2.8467096 122.46658996 2.7265625 125.4375 C2.375 127.375 2.375 127.375 0.6875 129.8125 C-2.03940191 131.65500129 -3.32934056 132.12047504 -6.625 132.375 C-9.78167142 131.66031821 -12.81127638 130.59841226 -15.875 129.5625 C-38.12441536 122.55370321 -61.26057039 123.49949986 -84.3125 125.375 C-94.76498621 126.22299973 -105.14406819 126.59813638 -115.625 126.625 C-116.94201904 126.63402344 -118.25903809 126.64304688 -119.6159668 126.65234375 C-130.89256058 126.61776402 -141.02678325 125.26101281 -151.625 121.375 C-151.29290527 122.31069824 -150.96081055 123.24639648 -150.61865234 124.21044922 C-147.6917974 132.4615495 -144.7757226 140.71635388 -141.87522888 148.97676086 C-140.43660668 153.07303066 -138.98714426 157.16512351 -137.52734375 161.25390625 C-136.99635726 162.77307489 -136.46627943 164.29256174 -135.9375 165.8125 C-135.50050781 167.04871094 -135.06351562 168.28492188 -134.61328125 169.55859375 C-132.05514789 179.43723523 -132.84452421 187.67716141 -135.0625 197.5625 C-135.30548828 198.70525391 -135.54847656 199.84800781 -135.79882812 201.02539062 C-136.39345434 203.81197228 -137.00232605 206.59457675 -137.625 209.375 C-136.98433594 209.52195312 -136.34367187 209.66890625 -135.68359375 209.8203125 C-127.14794582 212.0337294 -122.2722782 215.35634583 -117.67578125 222.9140625 C-116.74599388 224.60009675 -115.83362604 226.29583623 -114.9375 228 C-114.45982178 228.88212158 -113.98214355 229.76424316 -113.48999023 230.6730957 C-110.43362843 236.44598867 -108.06042127 241.99599309 -106.50390625 248.35546875 C-105.79872469 250.48990068 -105.79872469 250.48990068 -103.90234375 251.47265625 C-100.26931321 251.31686592 -98.1983253 248.96274729 -95.625 246.625 C-95.05177002 246.12057373 -94.47854004 245.61614746 -93.88793945 245.09643555 C-92.12204203 243.53508973 -90.37304508 241.95627928 -88.625 240.375 C-87.64917969 239.51003906 -86.67335938 238.64507812 -85.66796875 237.75390625 C-79.71338703 232.40211392 -73.9870933 226.83460075 -68.3125 221.1875 C-67.65467529 220.53434814 -66.99685059 219.88119629 -66.3190918 219.20825195 C-56.30780542 210.26492739 -56.30780542 210.26492739 -50.26171875 199.04296875 C-50.36930135 193.78797265 -51.06882238 189.43257727 -52.625 184.375 C-53.1995602 180.27099856 -53.0156339 178.93653623 -50.625 175.5 C-46.46226829 172.55139837 -44.64955429 172.5774517 -39.625 173.375 C-34.77821789 177.17382922 -33.60268855 183.54403736 -32.625 189.375 C-31.89646587 197.8453065 -31.45594005 205.35893104 -36.625 212.375 C-37.38167969 213.42042969 -38.13835937 214.46585938 -38.91796875 215.54296875 C-42.56341991 220.41801487 -46.16225897 225.2289184 -50.80078125 229.20703125 C-59.9801611 237.12435284 -62.50949243 245.31462275 -65.09082031 257.02197266 C-65.8082383 260.18215301 -66.70140289 263.26951063 -67.625 266.375 C-48.77369327 257.73729557 -31.78424947 248.37987543 -15.625 235.375 C-16.87796875 235.42140625 -18.1309375 235.4678125 -19.421875 235.515625 C-21.07289281 235.55314813 -22.72393642 235.58954771 -24.375 235.625 C-25.2 235.65851563 -26.025 235.69203125 -26.875 235.7265625 C-32.99596464 235.82528774 -32.99596464 235.82528774 -36.140625 233.57421875 C-38.25847478 230.4364571 -38.625 228.14616063 -38.625 224.375 C-36.85858828 221.57310554 -35.59450178 219.85975089 -32.625 218.375 C-30.35095147 218.10508819 -28.07078715 217.8860385 -25.7890625 217.69140625 C-24.40102166 217.56728084 -23.01300144 217.44292463 -21.625 217.31835938 C-19.43742501 217.12665201 -17.24969414 216.93747417 -15.06152344 216.75268555 C-12.94917794 216.57268319 -10.83791472 216.38266136 -8.7265625 216.19140625 C-7.46150879 216.08256104 -6.19645508 215.97371582 -4.89306641 215.86157227 C-1.94220697 215.42222796 -0.06645603 215.0443901 2.375 213.375 C4.060649 210.39919072 4.060649 210.39919072 5.4375 206.9375 C8.5250029 199.60775174 8.5250029 199.60775174 11.375 197.375 C14.76523533 196.09220825 16.12529905 196.28197415 19.5625 197.5625 C23.56705298 200.14321192 23.56705298 200.14321192 24.375 203.375 C24.13987854 209.37059729 22.04849775 214.11821455 19.375 219.375 C18.91351563 220.29410156 18.45203125 221.21320313 17.9765625 222.16015625 C13.62728877 230.21161663 8.1064776 236.49167106 1.74414062 242.96630859 C0.60870492 244.13454397 -0.48987432 245.33846999 -1.578125 246.55078125 C-19.45806808 266.00125987 -55.08310503 286.78822517 -81.4375 289.8125 C-84.625 289.375 -84.625 289.375 -87 287.75 C-89.01755966 284.80125895 -89.32825032 282.94017569 -89.625 279.375 C-89.07672303 276.7217803 -88.4746122 274.26280885 -87.6875 271.6875 C-86.14313794 266.62330843 -86.14313794 266.62330843 -85.625 261.375 C-86.07230469 261.78492188 -86.51960938 262.19484375 -86.98046875 262.6171875 C-87.58503906 263.15601563 -88.18960938 263.69484375 -88.8125 264.25 C-89.40417969 264.78367187 -89.99585937 265.31734375 -90.60546875 265.8671875 C-96.12873952 269.99094479 -101.98018529 270.12056126 -108.625 269.375 C-114.44524018 267.64757627 -118.24945701 264.41771516 -121.625 259.375 C-122.9812835 256.54906373 -124.02544515 253.64321535 -125.0625 250.6875 C-127.42938509 244.24464073 -130.05486934 238.27172237 -133.55859375 232.34375 C-134.625 230.375 -134.625 230.375 -134.625 228.375 C-135.27726562 228.20484375 -135.92953125 228.0346875 -136.6015625 227.859375 C-142.76820216 226.14945132 -148.38649488 224.57442439 -152.2265625 219.0859375 C-157.86305463 208.15932985 -153.33313811 193.62029719 -150.625 182.375 C-150.295 181.385 -149.965 180.395 -149.625 179.375 C-155.81236868 182.57551725 -161.22628864 186.15648686 -166.5625 190.625 C-167.25053711 191.19347656 -167.93857422 191.76195312 -168.64746094 192.34765625 C-181.32031003 201.56526796 -181.32031003 201.56526796 -189.25 214.0625 C-187.84558562 221.50589621 -183.01451759 227.30251286 -177.625 232.375 C-177.625 233.035 -177.625 233.695 -177.625 234.375 C-177.03589844 234.6328125 -176.44679687 234.890625 -175.83984375 235.15625 C-173.44049867 236.47652454 -172.03688034 237.86498306 -170.1875 239.875 C-166.60892282 243.55504913 -162.8055184 246.7456418 -158.75 249.875 C-158.17838135 250.32037109 -157.6067627 250.76574219 -157.01782227 251.22460938 C-154.1449223 253.62471457 -154.1449223 253.62471457 -150.625 254.375 C-150.22667969 253.53195312 -149.82835937 252.68890625 -149.41796875 251.8203125 C-148.88816406 250.72460938 -148.35835937 249.62890625 -147.8125 248.5 C-147.29042969 247.40945313 -146.76835937 246.31890625 -146.23046875 245.1953125 C-144.625 242.375 -144.625 242.375 -141.625 240.375 C-137.31866381 239.81677123 -135.30516763 239.93572507 -131.625 242.3125 C-129.31878949 245.84388485 -129.45640611 247.63101726 -130.0234375 251.71850586 C-131.21019883 256.95923234 -133.48507194 261.77774716 -135.625 266.6875 C-152.07807193 303.72432943 -152.07807193 303.72432943 -154.625 343.375 C-151.16544538 347.71570614 -148.51973419 349.20347789 -143.21875 350.08984375 C-88.93375206 356.05792334 -24.9995096 321.97128232 22.96484375 299.77734375 C28.25247169 297.33515563 33.55431271 294.92700811 38.87890625 292.56640625 C39.84847511 292.1308567 39.84847511 292.1308567 40.83763123 291.68650818 C53.42151795 286.14837455 63.5291525 286.9537202 76.6875 289.625 C139.35937435 301.46142658 205.04563157 300.21482472 268.48001099 296.9463501 C272.77741196 296.72983869 277.07532919 296.54027458 281.375 296.375 C282.75634125 296.32182617 282.75634125 296.32182617 284.16558838 296.26757812 C286.92944011 296.17420918 289.69209695 296.1130496 292.45703125 296.0625 C293.29554123 296.032771 294.13405121 296.00304199 294.99797058 295.97241211 C300.76314683 295.91576985 300.76314683 295.91576985 303.89916992 298.26953125 C305.94163396 301.18337903 305.94594812 303.01431638 305.765625 306.47265625 C305.15578578 309.44257326 303.81936955 310.67752114 301.375 312.375 C297.81664615 313.55316197 294.21963262 313.65675634 290.49609375 313.875 C289.8111232 313.91560547 289.12615265 313.95621094 288.42042542 313.99804688 C286.95706694 314.08387375 285.49359642 314.16780779 284.0300293 314.25 C281.89925676 314.3701096 279.7689809 314.4969664 277.63867188 314.625 C252.63965011 316.09354084 227.66077276 316.58245042 202.625 316.5625 C201.87078136 316.56223312 201.11656273 316.56196625 200.33948898 316.56169128 C176.31146211 316.55105033 152.33408965 316.38208192 128.375 314.375 C127.59133057 314.30947937 126.80766113 314.24395874 126.00024414 314.17645264 C107.60739533 312.6119138 89.36042602 310.64316292 71.2746582 306.86206055 C57.63192957 304.1126846 49.21091887 307.37970925 37.0135498 313.28530884 C32.6800874 315.37948595 28.31980337 317.41639305 23.9609375 319.45703125 C23.07289429 319.87379623 22.18485107 320.29056122 21.26989746 320.71995544 C-109.11409489 381.65891033 -109.11409489 381.65891033 -155.4140625 365.3828125 C-161.95603203 362.40078399 -167.28759543 358.91631296 -170.625 352.375 C-179.33678332 326.55644216 -165.77041739 295.63362624 -157.625 271.375 C-158.67494141 271.01728516 -158.67494141 271.01728516 -159.74609375 270.65234375 C-170.26383095 265.98572222 -179.35414634 256.24388286 -187.625 248.375 C-188.30433594 247.74851562 -188.98367187 247.12203125 -189.68359375 246.4765625 C-198.71891415 237.90407589 -206.6557428 226.52970757 -207.3125 213.8125 C-206.85184585 203.01271927 -199.46213821 194.77821172 -191.81542969 187.69995117 C-187.09501345 183.56928266 -182.24922912 179.66232947 -177.25 175.875 C-176.51193115 175.31401611 -175.7738623 174.75303223 -175.01342773 174.17504883 C-159.42520286 162.375 -159.42520286 162.375 -156.625 162.375 C-157.00833496 161.28147217 -157.39166992 160.18794434 -157.78662109 159.0612793 C-159.22245371 154.95833476 -160.64742402 150.85168391 -162.06933594 146.74389648 C-162.68329397 144.97498226 -163.30009567 143.20705212 -163.91992188 141.44018555 C-168.96084983 127.06134508 -173.23282368 113.67682549 -171.125 98.25 C-170.747066 95.32101151 -170.61203104 92.85060176 -170.6875 89.9375 C-170.71525523 73.56191376 -160.88987111 58.98623131 -149.921875 47.55859375 C-145.13336643 42.55863386 -141.20771929 38.0732667 -138.0625 31.8125 C-130.34563131 16.50707159 -117.457984 7.93295164 -101.625 2.375 C-94.84045159 0.21031674 -88.17970872 -0.81751244 -81.125 -1.5 C-74.62916068 -2.13933451 -69.4511912 -3.66310212 -63.47265625 -6.3828125 C-43.69085813 -15.01190962 -17.19042526 -13.22633607 0 0 Z " fill="#000000" transform="translate(206.625,77.625)"/>
<path d="M0 0 C2.4375 1.4375 2.4375 1.4375 4 4 C4.78075779 7.2048848 4.70109506 9.78296032 4 13 C2.77741241 14.83463287 2.77741241 14.83463287 1.12512207 16.62268066 C0.48692032 17.31557693 -0.15128143 18.00847321 -0.80882263 18.72236633 C-5.04984685 23.13072673 -9.35251222 27.47332561 -13.68945312 31.78710938 C-14.75322987 32.84896297 -15.81677623 33.91104741 -16.88011169 34.9733429 C-19.15614181 37.24623101 -21.43371126 39.51756085 -23.71250916 41.78767395 C-27.32190524 45.38345623 -30.92740231 48.98313142 -34.53234863 52.58337402 C-42.83495948 60.87398315 -51.14259252 69.15955376 -59.45027924 77.44507599 C-67.06942139 85.04399484 -74.6874776 92.64399414 -82.30148077 100.24806261 C-85.87911085 103.82073552 -89.45915866 107.39096188 -93.04113007 110.95928192 C-95.27519092 113.18584013 -97.50713909 115.41450718 -99.73854256 117.64372826 C-100.76675335 118.6700802 -101.7958215 119.69557413 -102.82584953 120.72010231 C-107.89853805 125.76657443 -112.87576158 130.83118774 -117.50885773 136.28743744 C-119.87045651 138.99971093 -122.42665529 141.4894198 -125 144 C-124.45178085 144.01030746 -123.90356171 144.02061493 -123.33872986 144.03123474 C-117.61185883 144.13975729 -111.8851307 144.25431538 -106.15844727 144.37231445 C-104.02371218 144.41551723 -101.88894579 144.45720211 -99.75415039 144.49731445 C-96.67845241 144.55537354 -93.60290984 144.61896384 -90.52734375 144.68359375 C-89.57915268 144.70030624 -88.63096161 144.71701874 -87.65403748 144.73423767 C-74.52075335 145.02515811 -74.52075335 145.02515811 -70.5625 147.5625 C-68.65553096 150.5373717 -68.52289778 152.53454188 -68.46875 156 C-69.30637943 159.15342843 -70.3097964 160.07832026 -73 162 C-76.70555912 162.58655457 -80.38123687 162.48777672 -84.125 162.42578125 C-85.22287842 162.42249313 -86.32075684 162.41920502 -87.4519043 162.41581726 C-90.96833405 162.40005991 -94.48381645 162.35604928 -98 162.3125 C-100.33723172 162.30100648 -102.67447252 162.29122196 -105.01171875 162.28320312 C-107.27865543 162.26976053 -109.54558388 162.25483253 -111.8125 162.23828125 C-112.8535791 162.23089432 -113.8946582 162.22350739 -114.96728516 162.21589661 C-122.01478852 162.12609055 -128.98458415 161.67190132 -136 161 C-136.05752441 161.62318115 -136.11504883 162.2463623 -136.17431641 162.88842773 C-136.9710414 171.51961512 -138.55252005 177.29951538 -144.6875 183.5 C-145.22987305 184.06605957 -145.77224609 184.63211914 -146.33105469 185.21533203 C-147.87605024 186.82173954 -149.43598053 188.41214684 -151 190 C-151.68191406 190.70898438 -152.36382812 191.41796875 -153.06640625 192.1484375 C-156.55314103 195.72416087 -160.2321523 199.04720197 -164.0234375 202.296875 C-165.31739731 203.41182852 -166.59444583 204.54678983 -167.8515625 205.703125 C-172.07189146 209.53302705 -175.45016865 211.9593309 -181.38671875 212.02734375 C-186.93762475 211.70374833 -190.70616632 210.77019543 -195 207 C-198 202.8 -198 202.8 -198 200 C-202.09576005 202.30842456 -206.10857638 204.68942304 -210.08666992 207.19726562 C-222.06839447 214.6692817 -236.45320941 222.67759196 -251 221 C-256.13308791 218.38679161 -259.1797908 215.46062759 -261 210 C-262.49422348 193.86238646 -252.33602828 178.836871 -242.54296875 166.84765625 C-242.03378906 166.23792969 -241.52460938 165.62820312 -241 165 C-239.7934375 163.453125 -239.7934375 163.453125 -238.5625 161.875 C-226.57915355 148.43026984 -209.4415478 137.11111518 -192.90454102 130.11328125 C-187.07288464 127.5833868 -184.29129181 124.1021077 -180.8125 118.875 C-179.68405344 117.24707709 -178.55513388 115.61948197 -177.42578125 113.9921875 C-176.85811035 113.16170898 -176.29043945 112.33123047 -175.70556641 111.47558594 C-173.03686499 107.60203421 -170.26654518 103.80394732 -167.5 100 C-166.41611933 98.50039545 -165.33278723 97.00039426 -164.25 95.5 C-153.41666667 80.5 -142.58333333 65.5 -131.75 50.5 C-131.21342773 49.7570166 -130.67685547 49.0140332 -130.12402344 48.24853516 C-129.04408802 46.75331489 -127.96401061 45.25819716 -126.88378906 43.76318359 C-124.1222756 39.94089565 -121.36349187 36.11668417 -118.609375 32.2890625 C-99.95865963 6.38229737 -99.95865963 6.38229737 -97 4 C-90.10638298 3.23404255 -90.10638298 3.23404255 -86.5625 5.6875 C-84.71851421 8.41659896 -84 9.68474145 -84 13 C-86.75872425 19.24591358 -90.32289304 24.45225802 -94.4375 29.875 C-95.69609229 31.55801089 -96.95388636 33.24161896 -98.2109375 34.92578125 C-98.84483398 35.77221191 -99.47873047 36.61864258 -100.13183594 37.49072266 C-102.98215137 41.31920436 -105.7749787 45.18817344 -108.5625 49.0625 C-109.09415771 49.80032715 -109.62581543 50.5381543 -110.17358398 51.29833984 C-111.24639959 52.78737735 -112.3189103 54.27663458 -113.39111328 55.76611328 C-116.09012128 59.51359784 -118.79538884 63.25655845 -121.5 67 C-122.58336304 68.49997854 -123.66669638 69.99997854 -124.75 71.5 C-131.25 80.5 -137.75 89.5 -144.25 98.5 C-144.78657227 99.2429834 -145.32314453 99.9859668 -145.87597656 100.75146484 C-146.95591198 102.24668511 -148.03598939 103.74180284 -149.11621094 105.23681641 C-152.44180269 109.83986088 -155.76252745 114.44635255 -159.07739258 119.05712891 C-160.18455815 120.59142024 -161.29631816 122.12240752 -162.4128418 123.64990234 C-164.78068414 126.8903338 -167.10988331 130.12198211 -169.25390625 133.515625 C-174.8283718 141.93550086 -181.02651341 145.12734116 -189.98193359 149.08642578 C-206.52141517 156.57381267 -223.91867209 169.14797663 -233.625 184.75 C-234.33914063 185.85859375 -235.05328125 186.9671875 -235.7890625 188.109375 C-238.63048911 192.85635121 -240.78829566 197.93778218 -243 203 C-224.77462578 194.76780731 -224.77462578 194.76780731 -208 184 C-207.47212891 183.60377441 -206.94425781 183.20754883 -206.40039062 182.79931641 C-198.6695401 176.9700416 -191.28777058 170.76964265 -184.0612793 164.32739258 C-176.00258067 157.20172516 -176.00258067 157.20172516 -171.8671875 156.78515625 C-168.76075231 157.21762076 -166.46128816 157.62520337 -164 159.625 C-162.58316371 162.98998618 -162.65841645 165.35894456 -163 169 C-164.25644478 171.58059361 -165.91707408 173.74992678 -167.6875 176 C-168.12255859 176.5775 -168.55761719 177.155 -169.00585938 177.75 C-169.88128056 178.91204056 -170.76260429 180.06965899 -171.64990234 181.22265625 C-173.83547431 184.09986492 -175.91247145 187.05113085 -178 190 C-176.35480411 188.58676384 -174.71006245 187.17299609 -173.06738281 185.75683594 C-171.72704265 184.61783171 -170.37282316 183.49488496 -169.00292969 182.39160156 C-158.27169916 173.67215101 -153.20220397 166.36127079 -151.57958984 152.42626953 C-151.45922363 151.45028809 -151.33885742 150.47430664 -151.21484375 149.46875 C-151.14386475 148.60701172 -151.07288574 147.74527344 -150.99975586 146.85742188 C-148.28935079 139.11075987 -139.95246983 132.81728809 -134.23828125 127.140625 C-132.96614273 125.87067688 -132.96614273 125.87067688 -131.66830444 124.57507324 C-129.36427422 122.27581079 -127.05806731 119.97875834 -124.75100327 117.68254089 C-122.32317123 115.26477184 -119.89864529 112.84369251 -117.47387695 110.42285156 C-110.79678489 103.75774372 -104.1146634 97.09768572 -97.43247986 90.43768311 C-91.30251094 84.32795733 -85.17364132 78.21713915 -79.04882717 72.10224533 C-76.64189825 69.6994569 -74.23391437 67.29774618 -71.82339478 64.89855957 C-69.13390597 62.2210904 -66.44751535 59.54054713 -63.76171875 56.859375 C-62.97501801 56.07784058 -62.18831726 55.29630615 -61.3777771 54.49108887 C-57.25835845 50.37206268 -53.32204666 46.16171825 -49.52021217 41.74801445 C-47.6447564 39.5915235 -45.67638201 37.54938094 -43.65698242 35.52758789 C-42.8831572 34.7506105 -42.10933197 33.97363312 -41.3120575 33.17311096 C-40.50138321 32.36446091 -39.69070892 31.55581085 -38.85546875 30.72265625 C-37.57897209 29.4447245 -37.57897209 29.4447245 -36.27668762 28.14097595 C-34.49208294 26.355695 -32.70623176 24.57165928 -30.91918945 22.78881836 C-28.17477838 20.04980339 -25.43579568 17.30544048 -22.69726562 14.56054688 C-20.95865423 12.82259558 -19.21973305 11.08495414 -17.48046875 9.34765625 C-16.24927559 8.11342674 -16.24927559 8.11342674 -14.99320984 6.85426331 C-14.23514542 6.09935104 -13.47708099 5.34443878 -12.69604492 4.56665039 C-12.02876877 3.90016983 -11.36149261 3.23368927 -10.67399597 2.54701233 C-7.31965212 -0.5528824 -4.46112029 -0.38457934 0 0 Z " fill="#000000" transform="translate(508,66)"/>
<path d="M0 0 C3.6875 0.75 3.6875 0.75 6.1875 2.1875 C8.04790927 5.36569917 8.61814503 7.57376236 8.4609375 11.25 C6.77860372 16.68784655 1.87496433 20.14961937 -2.3125 23.75 C-3.40111328 24.71099609 -3.40111328 24.71099609 -4.51171875 25.69140625 C-5.81700255 26.83769674 -7.12933046 27.97602527 -8.44921875 29.10546875 C-10.89487013 31.26399963 -13.15547112 33.58034733 -15.43896484 35.90771484 C-17.24299325 37.6816526 -19.10106626 39.33955809 -21.01953125 40.98828125 C-25.28498994 44.69716275 -29.40014424 48.54737992 -33.5 52.4375 C-39.75580945 58.3482369 -46.02410055 64.24251723 -52.37890625 70.046875 C-54.3066425 71.8231646 -56.21135399 73.62483399 -58.08984375 75.453125 C-58.94707031 76.27296875 -59.80429687 77.0928125 -60.6875 77.9375 C-61.41710937 78.65292969 -62.14671875 79.36835938 -62.8984375 80.10546875 C-68.46588284 83.89817828 -74.87941938 82.67464005 -81.1875 81.8125 C-98.06879418 79.56841715 -108.38798873 82.60108962 -122.3125 92.75 C-123.26745361 93.44005127 -123.26745361 93.44005127 -124.24169922 94.14404297 C-131.10527508 99.12421015 -137.88525122 104.22628083 -144.375 109.6875 C-145.17035156 110.35652344 -145.96570313 111.02554688 -146.78515625 111.71484375 C-148.5862912 113.67659856 -148.5862912 113.67659856 -148.24609375 116.37890625 C-147.44572438 119.07355623 -147.44572438 119.07355623 -144.3125 120.75 C-120.13741756 124.80068084 -89.46582057 121.41159824 -69.0625 107.3125 C-66.89975809 105.72112076 -64.76146043 104.10633253 -62.65820312 102.43701172 C-56.87412937 97.93779026 -50.68280743 94.35298801 -44.3125 90.75 C-42.59392957 89.76899603 -40.87536725 88.78797739 -39.15737915 87.80595398 C-37.981605 87.13404078 -36.80547568 86.46274873 -35.6289978 85.79206848 C-28.34368942 81.63609618 -21.11258938 77.38763227 -13.87890625 73.14257812 C-12.94175781 72.59408203 -12.00460937 72.04558594 -11.0390625 71.48046875 C-9.81050537 70.75960083 -9.81050537 70.75960083 -8.55712891 70.02416992 C-2.75662049 66.73149498 -2.75662049 66.73149498 0.6875 66.875 C4.25981176 67.91692426 5.61845202 68.64642804 7.6875 71.75 C8.24602776 74.525541 8.41657902 77.00523194 7.6875 79.75 C5.05304166 82.69424222 2.37599674 84.71563265 -1.0390625 86.67578125 C-1.97556641 87.21734863 -2.91207031 87.75891602 -3.87695312 88.31689453 C-4.88693359 88.89294434 -5.89691406 89.46899414 -6.9375 90.0625 C-7.99130859 90.67206543 -9.04511719 91.28163086 -10.13085938 91.90966797 C-15.77337255 95.16899239 -21.43779178 98.38747336 -27.1171875 101.58203125 C-41.4094347 109.62995709 -41.4094347 109.62995709 -54.75 119.125 C-79.40690724 138.6368218 -111.38255357 141.61762492 -141.8046875 139.5078125 C-149.84346186 138.50552257 -156.92126504 135.79738022 -162.23046875 129.4609375 C-166.39581237 123.3860658 -168.38092417 118.15694058 -167.3125 110.75 C-165.06368713 105.51521153 -161.45510161 101.5967015 -157.3125 97.75 C-156.24337682 96.65372177 -155.17579395 95.55594023 -154.109375 94.45703125 C-150.61196254 90.95551919 -146.91695221 87.93323247 -142.9375 85 C-142.25341064 84.49339844 -141.56932129 83.98679687 -140.86450195 83.46484375 C-124.69207078 71.62159149 -110.18251509 61.62478738 -89.3125 62.75 C-88.05050781 63.01039063 -86.78851563 63.27078125 -85.48828125 63.5390625 C-80.05361258 64.54810314 -75.03148551 65.37828185 -70.09228516 62.42041016 C-65.36947459 58.67133169 -61.30698329 54.28678179 -57.25244141 49.83886719 C-54.56723156 46.94751865 -51.68595534 44.31934159 -48.75 41.6875 C-47.70540916 40.72963053 -46.66246056 39.7699673 -45.62109375 38.80859375 C-45.09112793 38.31987793 -44.56116211 37.83116211 -44.01513672 37.32763672 C-40.76633858 34.31735086 -37.54075554 31.28227892 -34.3125 28.25 C-28.30660698 22.61149256 -22.2982061 16.97652861 -16.2109375 11.42578125 C-14.3717719 9.72789926 -12.56036704 7.99903133 -10.7890625 6.23046875 C-4.67728319 0.27513431 -4.67728319 0.27513431 0 0 Z " fill="#000000" transform="translate(504.3125,174.25)"/>
</svg>
